<?xml version="1.0" encoding="UTF-8" standalone="no"?>
<svg
   xmlns:dc="http://purl.org/dc/elements/1.1/"
   xmlns:cc="http://creativecommons.org/ns#"
   xmlns:rdf="http://www.w3.org/1999/02/22-rdf-syntax-ns#"
   xmlns:svg="http://www.w3.org/2000/svg"
   xmlns="http://www.w3.org/2000/svg"
   xmlns:xlink="http://www.w3.org/1999/xlink"
   xmlns:sodipodi="http://sodipodi.sourceforge.net/DTD/sodipodi-0.dtd"
   xmlns:inkscape="http://www.inkscape.org/namespaces/inkscape"
   sodipodi:docname="1920x1080_Debian_XFCE2.svg"
   inkscape:export-ydpi="96"
   inkscape:export-xdpi="96"
   inkscape:export-filename="/home/bf/Bilder/GitHub_bilder/1920x1080_Debian_XFCE2.png"
   inkscape:version="1.0 (4035a4fb49, 2020-05-01)"
   version="1.1"
   id="svg2"
   height="1080"
   width="1920">
  <defs
     id="defs4">
    <linearGradient
       id="linearGradient3755">
      <stop
         id="stop3757"
         offset="0"
         style="stop-color:#8f9db3;stop-opacity:1;" />
      <stop
         id="stop3759"
         offset="1"
         style="stop-color:#161b2b;stop-opacity:1;" />
    </linearGradient>
    <radialGradient
       gradientUnits="userSpaceOnUse"
       gradientTransform="matrix(1.249665,0,0,0.8766271,-234.95842,64.240419)"
       r="960"
       fy="512.36218"
       fx="960"
       cy="512.36218"
       cx="960"
       id="radialGradient3765"
       xlink:href="#linearGradient3755"
       inkscape:collect="always" />
    <linearGradient
       y2="276.17719"
       x2="419.25385"
       y1="117.9077"
       x1="217.18628"
       gradientUnits="userSpaceOnUse"
       id="linearGradient1517"
       xlink:href="#linearGradient2452"
       inkscape:collect="always" />
    <linearGradient
       id="linearGradient2452"
       inkscape:collect="always">
      <stop
         style="stop-color:#000080;stop-opacity:0;"
         offset="0"
         id="stop2450" />
      <stop
         style="stop-color:#000080;stop-opacity:1;"
         offset="1"
         id="stop2448" />
    </linearGradient>
    <linearGradient
       spreadMethod="reflect"
       y2="305.63599"
       x2="385.70291"
       y1="65.878845"
       x1="230.0703"
       gradientUnits="userSpaceOnUse"
       id="linearGradient1515"
       xlink:href="#linearGradient2472"
       inkscape:collect="always" />
    <linearGradient
       inkscape:collect="always"
       id="linearGradient2472">
      <stop
         id="stop2468"
         offset="0"
         style="stop-color:#000080;stop-opacity:0;" />
      <stop
         id="stop2470"
         offset="1"
         style="stop-color:#064080;stop-opacity:1" />
    </linearGradient>
  </defs>
  <sodipodi:namedview
     inkscape:document-rotation="0"
     inkscape:window-maximized="1"
     inkscape:window-y="27"
     inkscape:window-x="0"
     inkscape:window-height="1024"
     inkscape:window-width="1920"
     showgrid="false"
     inkscape:current-layer="layer1"
     inkscape:document-units="px"
     inkscape:cy="571.93122"
     inkscape:cx="799.35156"
     inkscape:zoom="0.49497475"
     inkscape:pageshadow="2"
     inkscape:pageopacity="0.0"
     borderopacity="1.0"
     bordercolor="#666666"
     pagecolor="#ffffff"
     id="base" />
  <metadata
     id="metadata7">
    <rdf:RDF>
      <cc:Work
         rdf:about="">
        <dc:format>image/svg+xml</dc:format>
        <dc:type
           rdf:resource="http://purl.org/dc/dcmitype/StillImage" />
        <dc:title />
      </cc:Work>
    </rdf:RDF>
  </metadata>
  <g
     transform="translate(0,27.637817)"
     id="layer1"
     inkscape:groupmode="layer"
     inkscape:label="Fond">
    <rect
       y="-26.608994"
       x="1.038128"
       height="1080"
       width="1927.3635"
       id="rect2985"
       style="fill:url(#radialGradient3765);fill-opacity:1;stroke:none;stroke-width:1.00192" />
    <rect
       y="-248.71429"
       x="-240.41631"
       height="105.05586"
       width="151.52289"
       id="rect4511"
       style="opacity:1;fill:none;fill-opacity:1;stroke:#cc9acc;stroke-opacity:1" />
  </g>
  <g
     inkscape:label="Logo"
     id="layer4"
     inkscape:groupmode="layer">
    <g
       inkscape:label="x"
       id="layer5"
       inkscape:groupmode="layer">
      <path
         style="display:inline;mix-blend-mode:normal;fill:url(#linearGradient1515);fill-opacity:1;stroke-width:2.43681"
         d="m 287.3227,290.5327 -13.88668,-14.89924 23.5965,-22.18412 23.59644,-22.18412 -18.23863,-21.3468 c -10.03127,-11.74074 -21.84788,-25.44781 -23.18642,-27.31981 0,0 3.55971,-3.99448 14.69804,-14.10997 8.03977,-7.30154 15.73633,-13.32588 17.10349,-13.38749 1.36711,-0.0644 9.87788,9.75728 18.91288,21.81941 9.03494,12.06225 17.23725,21.91784 18.22725,21.90156 0.98995,-0.0159 9.91177,-9.92305 19.82616,-22.01466 9.91439,-12.09161 18.86058,-21.67315 19.88048,-21.29228 1.0199,0.38147 8.0835,6.60394 15.69697,13.82885 l 13.84241,13.13631 -20.92981,21.02726 c -11.51137,11.56496 -20.92975,22.25218 -20.92975,23.74936 0,1.49713 9.83747,13.11678 21.86092,25.82118 l 21.86091,23.09906 -10.28606,9.25428 c -5.65734,5.08989 -13.11125,11.27697 -16.56439,14.4359 l -6.69804,5.77113 -19.92667,-25.16118 c -11.19045,-14.13253 -21.14826,-24.84688 -22.12825,-23.80958 -0.98016,1.03735 -10.22844,12.30336 -20.55185,25.0357 -10.32336,12.73228 -19.47167,23.27994 -20.32957,23.43917 -0.85748,0.15908 -7.80871,-6.41522 -15.44633,-14.60992 z"
         id="path1457"
         inkscape:connector-curvature="0"
         sodipodi:nodetypes="ccccccccccsccccsccsccccscc"
         transform="matrix(3.2145433,0,0,3.1452683,-169.02631,-157.30074)" />
    </g>
    <g
       inkscape:label="debian"
       id="layer2"
       inkscape:groupmode="layer">
      <g
         id="g453"
         style="display:inline"
         transform="matrix(4.6096424,0,0,4.6096424,-388.93763,-1799.8669)">
        <text
           xml:space="preserve"
           style="font-style:normal;font-variant:normal;font-weight:bold;font-stretch:normal;font-size:12.6429px;line-height:1.25;font-family:Quicksand;-inkscape-font-specification:'Quicksand, Bold';font-variant-ligatures:normal;font-variant-caps:normal;font-variant-numeric:normal;font-feature-settings:normal;text-align:start;letter-spacing:0px;word-spacing:0px;writing-mode:lr-tb;text-anchor:start;display:inline;fill:#9ab0c9;fill-opacity:1;stroke:none;stroke-width:0.299598"
           x="318.12949"
           y="464.50659"
           id="text1433-9"><tspan
             sodipodi:role="line"
             x="318.12949"
             y="464.50659"
             id="tspan1431-7"
             style="font-style:normal;font-variant:normal;font-weight:bold;font-stretch:normal;font-size:12.6429px;font-family:Quicksand;-inkscape-font-specification:'Quicksand, Bold';font-variant-ligatures:normal;font-variant-caps:normal;font-variant-numeric:normal;font-feature-settings:normal;text-align:start;writing-mode:lr-tb;text-anchor:start;stroke-width:0.299598"><tspan
               x="318.12949"
               y="464.50659"
               style="font-style:normal;font-variant:normal;font-weight:bold;font-stretch:normal;font-size:12.6429px;font-family:Quicksand;-inkscape-font-specification:'Quicksand, Bold';font-variant-ligatures:normal;font-variant-caps:normal;font-variant-numeric:normal;font-feature-settings:normal;text-align:start;writing-mode:lr-tb;text-anchor:start;fill:#9ab0c9;fill-opacity:1;stroke-width:0.299598"
               id="tspan1429-6">10</tspan></tspan></text>
        <g
           id="g4346"
           transform="matrix(0.26458333,0,0,0.26458333,221.43722,432.31958)">
          <path
             d="m 182.62093,121.70356 c -0.0871,0.091 -0.0871,14.53264 -0.26721,18.30231 -0.17812,3.04943 -0.44918,9.59747 -6.90816,9.59747 -6.63901,0 -8.25374,-7.62646 -8.79198,-10.94307 -0.62733,-3.67869 -0.62733,-6.73003 -0.62733,-8.07371 0,-4.30597 0.26914,-16.33135 10.40676,-16.33135 3.05135,0 4.75514,0.90031 6.10079,1.61474 l 0.0871,5.83361 z m -26.01595,10.58875 c 0,25.2976 13.45811,25.2976 15.43104,25.2976 5.56255,0 9.15213,-3.05135 10.67589,-8.34089 l 0.18008,7.9827 c 1.70571,-0.091 3.40955,-0.26914 6.18984,-0.26914 0.98741,0 1.79286,0 2.51308,0.091 0.71831,0 1.4347,0.0871 2.24207,0.17811 -1.43466,-2.86935 -2.51116,-9.32833 -2.51116,-23.32856 0,-13.63622 0,-36.691797 1.16556,-43.690924 -3.22755,1.527594 -6.01173,2.515035 -12.11251,3.051349 2.4221,2.602177 2.4221,3.947778 2.4221,15.787265 -1.70187,-0.53631 -3.8568,-1.16359 -7.53544,-1.16359 -16.05837,0 -18.66055,13.99441 -18.66055,24.40505"
             style="fill:#000000;fill-opacity:1;fill-rule:nonzero;stroke:none"
             id="path2862"
             inkscape:connector-curvature="0" />
          <path
             d="m 205.26023,127.71332 c 0.091,-7.44638 1.61665,-14.08736 7.9846,-14.08736 6.99918,0 7.53353,7.71552 7.35541,14.08736 z m 24.22109,0.90031 c 0,-10.49774 -2.06198,-20.8174 -15.34001,-20.8174 -18.30044,0 -18.30044,20.27721 -18.30044,24.58318 0,18.21138 8.16277,25.38862 21.89002,25.38862 6.0969,0 9.06116,-0.8945 10.67589,-1.34559 -0.0891,-3.22952 0.35819,-5.29343 0.90031,-8.07372 -1.88775,1.16944 -4.30986,2.69316 -9.69233,2.69316 -13.99638,0 -14.17642,-12.74369 -14.17642,-17.13872 h 23.86875 l 0.17423,-5.28953"
             style="fill:#000000;fill-opacity:1;fill-rule:nonzero;stroke:none"
             id="path2864"
             inkscape:connector-curvature="0" />
          <path
             d="m 258.66865,132.47043 c 0,8.3428 -1.52375,19.55889 -11.93051,19.55889 -1.43662,0 -3.22947,-0.27302 -4.39503,-0.54211 -0.18003,-3.22951 -0.18003,-8.79202 -0.18003,-15.25101 0,-7.71743 0.8054,-11.74846 1.43657,-13.72724 1.88195,-6.36796 6.09886,-6.45702 6.90431,-6.45702 6.8191,0 8.16469,9.4232 8.16469,16.41849 z m -25.74682,9.77942 c 0,6.63906 0,10.40676 -1.07646,13.27616 3.67865,1.43657 8.25184,2.24202 13.7272,2.24202 3.49861,0 13.63628,0 19.10781,-11.21221 2.60218,-5.20239 3.4986,-12.20152 3.4986,-17.49685 0,-3.22952 -0.35819,-10.31579 -2.96037,-14.80376 -2.51116,-4.21303 -6.54996,-6.36795 -10.85401,-6.36795 -8.61386,0 -11.12507,7.17724 -12.46875,10.85592 0,-4.57511 0.0872,-20.544376 0.80353,-28.709111 -5.82973,2.693202 -9.42127,3.138491 -13.27615,3.498608 3.4986,1.432779 3.4986,7.357363 3.4986,26.647123 v 22.07005"
             style="fill:#000000;fill-opacity:1;fill-rule:nonzero;stroke:none"
             id="path2866"
             inkscape:connector-curvature="0" />
          <path
             d="m 285.4242,157.23172 c -1.7929,-0.26914 -3.05331,-0.44918 -5.6555,-0.44918 -2.86547,0 -4.84228,0.18004 -6.90427,0.44918 0.89643,-1.70571 1.25462,-2.51504 1.52376,-8.34281 0.36011,-7.98657 0.45109,-29.34028 -0.17811,-33.82441 -0.44922,-3.41147 -1.25462,-3.94778 -2.51121,-4.8442 7.35541,-0.71831 9.42128,-1.25654 12.82694,-2.87132 -0.71639,3.94394 -0.80737,5.92267 -0.80737,11.93052 -0.17811,30.95697 -0.26913,34.27358 1.70576,37.95222"
             style="fill:#000000;fill-opacity:1;fill-rule:nonzero;stroke:none"
             id="path2868"
             inkscape:connector-curvature="0" />
          <path
             d="m 314.15263,131.83926 c -0.1762,5.65353 -0.26718,9.60131 -1.79481,12.7398 -1.88383,4.0388 -5.02232,5.2024 -7.35536,5.2024 -5.38636,0 -6.55,-4.48409 -6.55,-8.87912 0,-8.43191 7.53739,-9.06308 10.94306,-9.06308 z m -24.67415,11.03792 c 0,5.65354 1.70571,11.30319 6.73195,13.72725 2.24203,0.98548 4.48409,0.98548 5.2024,0.98548 8.25571,0 11.03404,-6.1027 12.7398,-9.86852 -0.091,3.94782 0,6.368 0.26914,9.51033 1.61473,-0.091 3.22946,-0.26914 5.92267,-0.26914 1.52371,0 2.96033,0.17816 4.48408,0.26914 -0.98744,-1.52372 -1.52375,-2.42402 -1.79673,-5.92267 -0.17816,-3.40566 -0.17816,-6.81713 -0.17816,-11.57036 l 0.091,-18.30235 c 0,-6.82293 -1.79481,-13.54908 -15.25484,-13.54908 -8.87719,0 -14.08155,2.69123 -16.68374,4.03879 1.07842,1.97293 1.97485,3.67476 2.7803,7.53544 3.50052,-3.05135 8.0776,-4.66608 12.7398,-4.66608 7.45026,0 7.45026,4.93522 7.45026,11.93046 -1.7057,-0.0871 -3.14429,-0.26525 -5.56639,-0.26525 -11.3942,0 -18.93156,4.39119 -18.93156,16.41656"
             style="fill:#000000;fill-opacity:1;fill-rule:nonzero;stroke:none"
             id="path2870"
             inkscape:connector-curvature="0" />
          <path
             d="m 365.82821,148.34872 c 0.091,3.05135 0.091,6.28082 1.34565,8.883 -1.9749,-0.17811 -3.14237,-0.44918 -6.81718,-0.44918 -2.15684,0 -3.32044,0.18004 -5.02619,0.44918 0.35622,-1.16556 0.54019,-1.61473 0.7183,-3.14233 0.26914,-2.06007 0.44917,-8.97014 0.44917,-11.3942 v -9.68845 c 0,-4.21691 0,-10.31962 -0.27105,-12.4707 -0.17812,-1.52372 -0.62345,-5.64966 -5.83165,-5.64966 -5.11334,0 -6.81521,3.76583 -7.44643,6.81718 -0.71442,3.14041 -0.71442,6.54996 -0.71442,19.82799 0.0871,11.48325 0.0871,12.55784 0.98356,15.70017 -1.52371,-0.17811 -3.40758,-0.35819 -6.09882,-0.35819 -2.15689,0 -3.58962,0.0891 -5.38248,0.35819 0.62925,-1.43662 0.98741,-2.15493 1.16557,-7.17725 0.182,-4.93522 0.54014,-29.16024 -0.27303,-34.89895 -0.44528,-3.50249 -1.34559,-4.30794 -2.32916,-5.20436 7.26827,-0.3582 9.59743,-1.5276 11.84338,-2.69124 v 9.51034 c 1.07454,-2.78419 3.31661,-8.97403 12.29063,-8.97403 11.21604,0 11.30318,8.16474 11.39415,13.54525 v 27.00724"
             style="fill:#000000;fill-opacity:1;fill-rule:nonzero;stroke:none"
             id="path2872"
             inkscape:connector-curvature="0" />
          <path
             d="m 286.18119,94.651794 -7.42894,7.427016 -7.42706,-7.427016 7.42706,-7.427062 7.42894,7.427062"
             style="fill:#9ab0c9;fill-opacity:1;fill-rule:nonzero;stroke:none"
             id="path2874"
             inkscape:connector-curvature="0" />
        </g>
      </g>
    </g>
    <g
       style="mix-blend-mode:normal"
       inkscape:label="Logo2"
       id="layer3"
       inkscape:groupmode="layer">
      <g
         transform="matrix(3.7795276,0,0,3.7795276,573.95039,193.50964)"
         id="g1513"
         inkscape:export-filename="/home/bf/Bilder/Debian-xfce_Logo_1006-1024.png"
         inkscape:export-xdpi="206.10248"
         inkscape:export-ydpi="206.10248"
         style="display:inline">
        <g
           style="display:inline;fill:url(#linearGradient1517);fill-opacity:1"
           id="g1459"
           transform="matrix(0.85051458,0,0,0.83218557,-196.57925,-92.81858)" />
        <g
           transform="matrix(0.88638152,0,0,0.88638152,-214.97571,-84.696884)"
           id="g1463"
           style="display:inline">
          <path
             sodipodi:nodetypes="ccccccccccsccccsccsccccsccccccccscccccccccccccccccccccccccccccccccccccccccccccccccccccccc"
             inkscape:connector-curvature="0"
             id="path1461"
             d="m 308.27909,275.29172 -2.61013,-2.80045 4.43518,-4.16971 4.43517,-4.16971 -3.42812,-4.01233 c -1.88547,-2.20678 -3.63399,-4.30022 -3.88558,-4.65208 -0.34856,-0.48748 0.19656,-1.23373 2.29011,-3.13503 1.51115,-1.37239 2.95779,-2.50472 3.21476,-2.5163 0.25696,-0.0121 1.85664,1.83397 3.55485,4.10116 1.6982,2.26721 3.2399,4.11966 3.42598,4.1166 0.18607,-0.003 1.86301,-1.86513 3.72651,-4.13786 1.8635,-2.27273 3.54502,-4.07367 3.73672,-4.00208 0.1917,0.0717 1.51937,1.24127 2.95039,2.59926 l 2.60181,2.46909 -3.93395,3.95227 c -2.16367,2.17374 -3.93394,4.1825 -3.93394,4.46391 0,0.2814 1.84904,2.46542 4.10896,4.85333 l 4.10896,4.34168 -1.93336,1.73943 c -1.06335,0.95669 -2.46438,2.22525 -3.11343,2.819 l -1.18005,1.07955 -3.82431,-4.82973 c -2.10335,-2.65634 -3.97501,-4.6702 -4.15921,-4.47523 -0.18423,0.19498 -1.92253,2.31253 -3.86291,4.70569 -1.94037,2.39315 -3.65988,4.37568 -3.82113,4.40561 -0.16117,0.0299 -1.46772,-1.2058 -2.90328,-2.74607 z m 59.63374,2.40418 c -5.11108,-0.83066 -9.47848,-3.38608 -11.04926,-6.46509 -0.80578,-1.57945 -0.93265,-2.47217 -0.76141,-5.35769 0.12117,-2.04242 0.53595,-4.09647 1.01126,-5.00836 1.17846,-2.26092 4.35786,-5.16777 7.42644,-6.7898 2.36229,-1.2487 10.24284,-4.0397 10.44712,-3.70001 0.17225,0.2865 1.17023,5.73115 1.17023,6.38454 0,0.48339 -0.97198,0.9691 -3.08266,1.54042 -1.69544,0.45895 -3.89176,1.26244 -4.88067,1.78556 -3.12251,1.65175 -4.65002,5.35894 -3.29097,7.98707 1.14987,2.2236 3.07077,2.96153 7.81913,3.00383 4.66566,0.0415 4.64168,0.0192 4.75505,4.44014 l 0.0542,2.11334 -2.12501,0.29128 c -2.59602,0.35581 -4.21818,0.30706 -7.49343,-0.22523 z m -31.14649,-13.35302 c 9.2e-4,-10.14399 0.13295,-13.22393 0.57359,-13.3623 0.31488,-0.0988 3.81874,-0.27327 7.78636,-0.38747 l 7.21382,-0.20765 v 3.14997 3.14996 l -2.63362,0.0487 c -4.76247,0.0881 -4.4503,-0.0873 -4.60414,2.58493 l -0.13849,2.40461 h 3.45909 3.45909 v 2.97713 2.97714 h -3.43515 -3.43517 v 4.77672 4.77671 l -4.12324,0.14698 -4.12323,0.14697 9.2e-4,-13.18247 z m 45.34514,-0.10006 V 250.7312 l 4.00769,-0.003 c 2.20422,-10e-4 5.70809,-0.1352 7.78635,-0.2969 l 3.77867,-0.29415 v 3.27404 3.27403 h -3.66416 -3.66417 v 2.2933 2.29331 l 3.22862,-0.30007 3.22862,-0.30007 -0.13693,3.15951 -0.13694,3.15951 -3.09164,0.13537 -3.09165,0.13537 v 2.04016 2.04017 h 3.89318 3.89319 l -0.0133,0.27446 -7.2764,6.17189 -1.67178,-0.007 -7.06924,-0.0267 z"
             style="fill:#000000;fill-opacity:1;stroke-width:0.458021" />
        </g>
        <g
           id="g3259">
          <g
             id="g1475"
             style="display:inline;opacity:0.811881;fill:#b7bec8"
             transform="matrix(1.0147171,0,0,0.99346279,-2.3053664,7.6162442)">
            <g
               id="g1467"
               transform="translate(-250.23452,-115.77995)"
               style="display:inline;fill:#b7bec8">
              <path
                 style="fill:#b7bec8;fill-opacity:1;stroke-width:0.458021"
                 d="m 321.50004,245.97519 c -0.5148,-0.51479 -0.33798,-2.08345 0.5722,-5.0764 0.4788,-1.57444 0.67672,-2.86262 0.4398,-2.86262 -0.2369,0 -1.17067,0.30915 -2.07504,0.68702 -2.00091,0.83603 -3.82215,0.89058 -3.82359,0.11442 -5.9e-4,-0.31488 0.90269,-1.91224 2.00725,-3.54966 l 2.0083,-2.97713 0.25761,-5.95429 c 0.26785,-6.19132 1.74737,-9.64178 2.75822,-12.45938 1.9331,-3.65303 1.92325,-3.68376 3.67526,-5.11832 l 2.21044,-0.96781 c 2.97779,-0.98965 6.8879,-1.30338 11.81711,-0.23339 5.89919,1.28053 11.11239,2.04483 14.00431,2.05314 2.30126,0.007 2.94947,-0.17034 3.74602,-1.02254 1.61433,-1.72714 2.15615,-4.90247 1.49554,-8.76449 -0.49994,-2.92267 -0.47817,-3.51147 0.17676,-4.77795 0.91525,-1.76991 2.60261,-2.29489 4.13952,-1.28785 0.61184,0.40089 1.87833,2.27858 2.81444,4.17267 1.80231,3.6467 3.32402,4.73392 2.73658,1.95522 -1.16579,-5.51467 -0.63642,-9.20853 1.4324,-9.99509 2.71576,-1.03253 4.43443,1.32306 4.98041,6.82617 0.47318,4.76947 0.13277,4.41487 5.08873,5.3001 11.01475,1.96744 18.01199,6.01211 18.01199,10.41164 0,2.60818 -1.59939,4.03894 -9.38944,8.39951 -3.52676,1.97415 -7.28825,4.08136 -8.35887,4.68269 -3.01459,1.69316 -2.63666,3.22295 2.3409,9.47575 1.37612,1.72868 1.36035,3.03632 -0.0364,3.01987 -0.44876,-0.005 -2.55726,-0.52056 -4.68556,-1.14505 -2.12831,-0.6245 -4.03482,-1.13545 -4.2367,-1.13545 -0.76015,0 -0.30492,0.99786 1.69406,3.71327 2.49955,3.3954 2.80149,5.44729 0.80153,5.44693 -1.40998,-2.6e-4 -4.55715,-1.11791 -9.87288,-3.50612 l -3.57509,-1.60619 -8.10444,0.31464 c -7.17988,0.27876 -20.31619,-0.24445 -23.90616,-0.95217 -0.91645,-0.18066 -2.05136,0.50797 -5.68448,3.44919 -4.59509,3.72002 -4.91368,3.91662 -5.46071,3.36959 z m 63.35956,-25.57284 c 2.62844,-2.67817 1.51903,-2.68733 -1.28621,-0.0104 -1.30208,1.24241 -1.87064,2.05466 -1.44277,2.06108 0.38839,0.005 1.61644,-0.91688 2.72898,-2.05047 z m -2.49026,-2.56698 c 1.62156,-0.78206 2.94828,-1.6065 2.94828,-1.83208 0,-0.59667 -0.25799,-0.53162 -2.95861,0.74599 -2.17425,1.02857 -4.09249,2.50802 -3.25188,2.50802 0.17259,0 1.64067,-0.63987 3.26221,-1.42193 z m -2.54797,-6.36442 c 0,-0.25192 -0.36068,-0.46262 -0.80154,-0.46821 -0.95957,-0.0121 -2.54969,-1.24084 -3.24705,-2.50894 -0.4914,-0.89358 -0.50411,-0.89129 -0.51768,0.093 -0.007,0.55494 0.22525,1.53397 0.51762,2.1756 0.43523,0.95528 0.85011,1.16661 2.29009,1.16661 0.96722,0 1.75856,-0.20611 1.75856,-0.45802 z m 0.89513,-2.49391 c 0.30208,-0.364 0.48191,-1.13692 0.39959,-1.71758 -0.11685,-0.82435 -0.43989,-1.05575 -1.47381,-1.05575 -1.84284,0 -2.57049,1.25221 -1.44824,2.4923 1.00418,1.1096 1.76448,1.19432 2.52246,0.28103 z m 15.90875,-6.32299 c 1.05722,-2.68768 3.00515,-5.72642 3.23287,-5.04326 0.21381,0.64144 -3.09275,6.98985 -3.64066,6.98985 -0.19686,0 -0.0139,-0.87597 0.40779,-1.94659 z m -2.82154,-1.71258 c 0.16134,-1.88659 0.49522,-3.74159 0.74192,-4.12219 0.30491,-0.47046 0.37466,0.3686 0.2178,2.62044 -0.12689,1.82186 -0.46075,3.67684 -0.74189,4.12219 -0.38935,0.6167 -0.44126,-0.009 -0.21783,-2.62044 z"
                 id="path1465"
                 inkscape:connector-curvature="0"
                 sodipodi:nodetypes="cssccccccccccccccccccssccsccsccsccccccccccccscscsccccsssccsccccscccccc" />
            </g>
            <g
               style="fill:#b7bec8"
               transform="translate(-23.659608,-65.10534)"
               id="g1473">
              <path
                 sodipodi:nodetypes="ccscccscccsccccccccccssscccccsccccccccccccccccccccccccccsccscsccsccsssccscccccccscccccscsscccccsccscscccscsccscscccscccscccscsccssc"
                 inkscape:connector-curvature="0"
                 id="path1469"
                 d="m 85.352787,129.97069 c -0.180961,-6.99841 -0.172087,-7.063 1.579519,-11.49561 0.502207,-1.27088 0.999212,-2.14303 1.221238,-2.14303 0.205915,0 0.675857,-0.68524 1.044315,-1.52276 1.047893,-2.38189 2.336254,-4.14217 4.353727,-5.94846 1.023024,-0.91594 1.943277,-1.67041 2.045007,-1.67661 0.101729,-0.006 0.886259,-0.46702 1.7434,-1.02406 2.397979,-1.5584 6.418747,-3.23204 8.240197,-3.42996 1.08707,-0.11813 1.46349,-0.0897 1.19172,0.0898 -0.29479,0.1948 -0.10695,0.26355 0.72828,0.26656 0.61903,0.002 1.12552,0.11978 1.12552,0.26122 0,0.14868 0.83749,0.23247 1.98511,0.19863 1.0918,-0.0322 1.9856,-0.13543 1.9862,-0.2294 0.001,-0.21247 2.85195,0.66345 4.42813,1.36067 0.68895,0.30475 1.65323,0.49752 2.33937,0.46766 0.99164,-0.0432 1.29955,0.0774 2.04617,0.80103 0.86043,0.83396 1.45939,1.13861 1.10215,0.56059 -0.32109,-0.51953 0.84039,0.22855 2.50266,1.61191 3.06787,2.5531 5.1985,5.97359 5.28094,8.47797 l 0.048,1.45655 -0.53974,-1.08713 c -0.45556,-0.91759 -0.64163,-1.06766 -1.19312,-0.96223 -0.35936,0.0687 -0.65339,0.28002 -0.65339,0.46961 0,0.62664 0.31615,1.18251 0.67256,1.18251 0.19308,0 0.40827,0.20855 0.4782,0.46345 0.20673,0.75359 0.43373,2.61114 0.27508,2.25104 -0.29925,-0.67927 -0.60655,-0.30213 -0.32368,0.39724 0.16201,0.40055 0.33252,1.25424 0.37891,1.89709 0.0464,0.64285 0.21174,1.24755 0.36744,1.34378 0.19675,0.1216 0.16528,0.61321 -0.10321,1.61188 -0.21247,0.7903 -0.39414,1.32475 -0.40373,1.18767 -0.039,-0.55763 -0.79569,0.83075 -0.80349,1.47422 -0.005,0.38243 -0.28682,1.33581 -0.62709,2.11862 -0.34027,0.78282 -0.7042,1.65831 -0.80874,1.94554 -0.15369,0.42231 -0.23425,0.45072 -0.42102,0.14851 -0.17455,-0.28243 -0.34897,-0.12349 -0.71403,0.65065 -0.26569,0.5634 -1.06031,1.56912 -1.76583,2.23493 -2.99404,2.82553 -5.95144,4.03338 -9.84,4.0188 -3.37769,-0.0127 -4.77099,-0.46721 -6.96518,-2.27229 -3.49774,-2.87748 -4.79556,-5.28632 -4.81102,-8.92955 -0.008,-1.7673 0.11015,-2.29451 0.88643,-3.97242 1.16967,-2.52819 3.15128,-4.71841 4.98456,-5.50926 2.63028,-1.13467 6.49736,-0.57466 8.14536,1.17956 l 0.57089,0.60768 -1.29638,-0.64157 c -3.35216,-1.65897 -8.28672,-0.2182 -10.3213,3.01355 -1.14945,1.82582 -1.94092,4.82452 -1.44116,5.46028 0.13444,0.17103 0.32531,0.83995 0.42414,1.48649 0.71996,4.70982 6.25622,8.83667 10.68435,7.96434 1.90015,-0.37433 2.9709,-0.73046 3.74008,-1.24395 0.38268,-0.25546 0.8255,-0.43755 0.98405,-0.40462 0.15854,0.0329 1.10744,-0.62813 2.10865,-1.46902 1.38017,-1.15916 1.86508,-1.74738 2.00517,-2.43235 0.10163,-0.49689 0.42307,-1.0908 0.71433,-1.31979 0.29125,-0.22899 0.70282,-0.95262 0.9146,-1.60807 0.52561,-1.62676 0.41161,-7.75156 -0.18439,-9.90663 -1.34524,-4.86418 -5.6407,-9.64138 -9.79943,-10.89845 -2.02502,-0.61211 -5.03572,-0.87143 -7.72207,-0.66513 -1.96715,0.15106 -2.70169,0.33869 -4.02778,1.02885 -0.89203,0.46425 -1.81827,0.8441 -2.0583,0.8441 -0.27913,0 -0.38148,0.14317 -0.28399,0.39724 0.11663,0.30392 -0.054,0.39724 -0.72641,0.39724 -1.110363,0 -3.355189,1.51503 -2.782349,1.8778 0.290314,0.18385 0.267401,0.23356 -0.109127,0.23677 -1.25314,0.0107 -4.130661,2.21781 -6.317849,4.84598 -0.7229,0.86865 -1.252194,1.74138 -1.176209,1.93939 0.07598,0.19801 -0.328508,1.34522 -0.898872,2.54936 -0.9884,2.08668 -1.052238,2.38249 -1.361477,6.30872 -0.291479,3.70073 -0.279266,4.25753 0.120169,5.47873 0.244541,0.74764 0.444621,1.77682 0.444621,2.28706 0,0.51025 0.113968,0.99815 0.253262,1.08424 0.139294,0.0861 0.190563,0.31992 0.113933,0.51961 -0.221319,0.57675 0.899257,2.53306 1.450937,2.53306 0.560952,0 1.117283,0.57422 1.73191,1.78759 0.441751,0.87209 0.275346,1.13456 -0.335803,0.52966 -0.472166,-0.46734 0.07714,0.95944 0.727014,1.88838 0.266915,0.38153 0.431439,0.84666 0.36561,1.03363 -0.06583,0.18696 0.03532,0.52671 0.224773,0.75499 0.189456,0.22828 0.367629,0.57288 0.395942,0.76579 0.06022,0.4103 1.518232,2.57565 2.182617,3.24149 0.251991,0.25255 0.789295,0.97531 1.194009,1.60614 0.473297,0.73773 0.870985,1.0951 1.114609,1.00162 -2.023516,0.36322 -11.105538,-14.28182 -12.829693,-22.80512 z m 26.258103,10.60983 c -1.70221,-0.41246 -4.82411,-1.92086 -5.01724,-2.42415 -0.0781,-0.20362 -0.22871,-0.31667 -0.33461,-0.25122 -0.1059,0.0654 -0.77865,-0.5009 -1.49501,-1.25855 -1.11506,-1.17933 -1.14052,-1.22705 -0.17695,-0.3316 0.61904,0.57527 1.12552,0.94803 1.12552,0.82836 0,-0.11968 0.41715,0.10058 0.927,0.48946 0.50985,0.38888 1.31427,0.88473 1.78759,1.10188 0.47332,0.21714 1.26451,0.64882 1.75818,0.95927 0.65197,0.40999 1.46585,0.59735 2.9741,0.68466 1.14208,0.0661 2.01223,0.22421 1.93368,0.35131 -0.19821,0.32072 -1.83125,0.25064 -3.48226,-0.14942 z m -5.36863,-2.91419 c 0,-0.0642 -0.13759,-0.20182 -0.30575,-0.30575 -0.18943,-0.11707 -0.23386,-0.0727 -0.11678,0.11678 0.18867,0.30528 0.42253,0.40987 0.42253,0.18897 z m -3.53742,-2.03967 c -0.4162,-0.57907 -0.69294,-1.11664 -0.61498,-1.1946 0.078,-0.078 0.45688,0.35746 0.84205,0.9676 0.90604,1.43526 0.75202,1.58923 -0.22707,0.227 z m 10.15811,-2.61045 c -0.28867,-0.18656 -0.0715,-0.25672 0.79449,-0.25672 0.86602,0 1.08316,0.0702 0.79448,0.25672 -0.21848,0.14119 -0.576,0.25672 -0.79448,0.25672 -0.21849,0 -0.576,-0.11553 -0.79449,-0.25672 z m 4.89932,-2.11862 c 0.09,-0.14566 0.22326,-0.26483 0.29609,-0.26483 0.0728,0 0.0588,0.11917 -0.0313,0.26483 -0.09,0.14565 -0.22326,0.26482 -0.29609,0.26482 -0.0728,0 -0.0588,-0.11917 0.0313,-0.26482 z m 1.57471,-4.78998 c -0.0979,-0.15835 -0.0453,-0.42053 0.11678,-0.58262 0.21641,-0.21641 0.29472,-0.13991 0.29472,0.2879 0,0.63943 -0.13757,0.73796 -0.4115,0.29472 z m -34.524874,-6.22245 c 0.01271,-0.30851 0.07546,-0.37126 0.16,-0.16 0.0765,0.19117 0.06709,0.41959 -0.02091,0.50759 -0.088,0.088 -0.150592,-0.0684 -0.139093,-0.34759 z m 1.472291,-4.74483 c 0.08384,-0.21849 0.255118,-0.39724 0.380619,-0.39724 0.125501,0 0.159587,0.17875 0.07575,0.39724 -0.08384,0.21848 -0.255118,0.39724 -0.380619,0.39724 -0.125501,0 -0.159587,-0.17876 -0.07575,-0.39724 z m 15.808893,-5.07587 c 0.0971,-0.0971 0.256,-0.0971 0.3531,0 0.0971,0.0971 0.0177,0.17655 -0.17655,0.17655 -0.19421,0 -0.27366,-0.0795 -0.17655,-0.17655 z"
                 style="fill:#b7bec8;fill-opacity:1;stroke-width:0.264828" />
              <path
                 sodipodi:nodetypes="csscssccccccscccccccccsccccccccccccscccccccccsscccccccccccsssscscccccccscsccccccccsccccscccccscccsccscscccccccsccsccssccs"
                 inkscape:connector-curvature="0"
                 id="path1471"
                 d="m 100.47937,157.35327 c -5.590492,-3.86775 -11.703167,-9.01562 -14.403669,-19.43775 -0.80116,-3.09194 -1.039332,-13.68963 -0.355003,-15.79621 1.041889,-3.20727 2.051227,-5.53998 2.501307,-5.78086 0.263035,-0.14077 0.987078,-1.28311 1.608984,-2.53853 0.917709,-1.85255 1.550303,-2.6897 3.357753,-4.44351 1.224858,-1.18851 2.355434,-2.12569 2.512391,-2.08262 0.156956,0.0431 0.537192,-0.15203 0.844969,-0.43354 1.164686,-1.06529 7.622808,-4.18137 8.080148,-3.89872 0.10378,0.0641 0.63415,0.0161 1.17859,-0.10664 0.77108,-0.1739 0.93022,-0.15134 0.71991,0.10207 -0.30963,0.37308 -0.0683,0.40248 4.21958,0.51407 2.98038,0.0776 4.4434,0.39189 6.37136,1.36886 0.91665,0.4645 1.48266,0.58048 2.29872,0.47102 0.98393,-0.13197 1.17238,-0.0555 2.06712,0.83928 0.6496,0.6496 1.04858,0.88079 1.1729,0.67963 0.23368,-0.37809 2.23124,1.16895 4.12374,3.19368 2.06925,2.21384 3.35755,4.52162 3.39765,6.08632 0.0184,0.71595 0.007,1.30168 -0.0261,1.30163 -0.0327,-5e-5 -0.2437,-0.35648 -0.46895,-0.79207 -0.29796,-0.57618 -0.5666,-0.76801 -0.98592,-0.70402 -0.31701,0.0484 -0.6241,0.23113 -0.68242,0.40611 -0.17915,0.53745 0.20047,1.61955 0.56817,1.61955 0.1951,0 0.46745,0.52386 0.62083,1.19411 0.22866,0.99922 0.21433,1.14521 -0.0878,0.89448 -0.4508,-0.37414 -0.47275,-0.0181 -0.062,1.0059 0.16447,0.41003 0.27933,1.18368 0.25524,1.71922 -0.0245,0.54458 0.11922,1.12599 0.32608,1.31922 0.31649,0.29565 0.31427,0.5087 -0.0154,1.47615 -0.21189,0.62185 -0.48554,1.06866 -0.60812,0.9929 -0.12258,-0.0758 -0.30187,0.43064 -0.39843,1.12532 -0.23025,1.65645 -1.6647,4.83985 -2.10477,4.67098 -0.19875,-0.0763 -0.49951,0.29 -0.74792,0.91084 -0.87553,2.18816 -5.26773,5.20048 -8.58863,5.89039 -1.87847,0.39024 -5.58575,0.18852 -7.2288,-0.39333 -1.55683,-0.55131 -5.19327,-3.87917 -6.13022,-5.61 -0.86616,-1.60006 -1.39786,-4.2124 -1.19449,-5.86872 0.18692,-1.52236 1.1455,-3.92245 2.039,-5.10525 1.52131,-2.01387 2.04012,-2.47995 3.56185,-3.19986 2.2374,-1.05848 4.41355,-1.05494 6.66639,0.0108 0.8928,0.42236 1.69403,0.88244 1.78052,1.02238 0.0865,0.13994 -0.3453,0.006 -0.95953,-0.2981 -1.73894,-0.86036 -4.6154,-0.78048 -6.71491,0.18649 -3.8498,1.77308 -5.73748,5.61164 -4.73174,9.6219 0.91166,3.63515 2.86486,6.15566 5.85418,7.55454 2.92074,1.36677 5.34414,1.25985 8.84201,-0.39014 2.88795,-1.36228 5.29655,-3.49556 5.29655,-4.69112 0,-0.50192 0.16312,-0.81382 0.47785,-0.91372 0.26692,-0.0847 0.67851,-0.70969 0.93246,-1.41591 0.67659,-1.88152 0.4946,-8.50015 -0.30012,-10.91503 -0.79502,-2.41577 -2.29295,-4.82153 -4.18366,-6.7192 -3.30305,-3.31519 -5.90082,-4.27577 -11.50462,-4.25407 l -3.58774,0.0139 -2.23847,1.03846 c -1.23116,0.57115 -2.29806,1.11698 -2.37088,1.21296 -0.0728,0.096 -0.58387,0.2986 -1.13564,0.45026 -1.143915,0.31443 -2.992234,1.7929 -2.494209,1.99512 0.175723,0.0713 0.07179,0.13914 -0.230964,0.15064 -0.896685,0.034 -2.828758,1.47832 -4.955447,3.7043 -2.057585,2.15365 -2.814771,3.20213 -2.312504,3.20213 0.152611,0 -0.158771,0.864 -0.69196,1.92 -0.759452,1.50412 -1.045743,2.49363 -1.321729,4.56828 -0.433654,3.25988 -0.464195,6.99744 -0.06532,7.9938 0.164149,0.41004 0.333459,1.16262 0.376244,1.67242 0.233143,2.77797 0.827479,4.11643 2.057378,4.63326 0.463706,0.19487 1.051654,0.71035 1.30655,1.14552 0.568385,0.97037 0.59264,1.27881 0.06621,0.84191 -0.623132,-0.51715 -0.502375,0.2022 0.256867,1.53016 0.356251,0.62311 0.587737,1.28926 0.514414,1.48034 -0.07332,0.19107 0.05087,0.50027 0.275979,0.68709 0.225111,0.18683 0.409811,0.53365 0.410443,0.77071 0.0014,0.53741 4.14631,6.12482 4.543541,6.12482 0.418332,0 2.565937,1.70043 2.495537,2.02387 -0.074,0.33989 1.30292,0.98013 1.97606,1.3639 0.48251,0.27509 1.57893,0.7378 1.65075,0.92498 6.28872,4.09787 1.45165,1.75415 -3.71814,0.16225 z m 11.66035,-16.84058 c 0.25767,-0.0671 0.61518,-0.0627 0.79448,0.01 0.1793,0.0725 -0.0315,0.12748 -0.46849,0.12208 -0.43696,-0.005 -0.58366,-0.0648 -0.32599,-0.13189 z m -1.18022,-0.26221 c 0.19117,-0.0765 0.41959,-0.0671 0.50759,0.0209 0.088,0.088 -0.0684,0.15059 -0.34759,0.13909 -0.30851,-0.0127 -0.37126,-0.0755 -0.16,-0.16 z m -2.38108,-0.88582 c -1.26679,-0.65404 -2.13705,-1.31672 -1.72917,-1.31672 0.17382,0 2.60819,1.3202 3.20436,1.73777 0.89388,0.6261 0.13159,0.40852 -1.47519,-0.42105 z m -4.08271,-2.9719 -0.50449,-0.59586 0.59586,0.5045 c 0.55997,0.4741 0.71643,0.68723 0.5045,0.68723 -0.0503,0 -0.31839,-0.26814 -0.59587,-0.59587 z m -1.58909,-0.50436 c -0.11708,-0.18943 -0.0727,-0.23386 0.11678,-0.11679 0.30529,0.18868 0.40987,0.42253 0.18897,0.42253 -0.0642,0 -0.20182,-0.13758 -0.30575,-0.30574 z m -0.63678,-1.0184 c -0.15591,-0.29131 -0.22388,-0.52965 -0.15105,-0.52965 0.0728,0 0.25997,0.23834 0.41588,0.52965 0.1559,0.29131 0.22387,0.52966 0.15105,0.52966 -0.0728,0 -0.25998,-0.23835 -0.41588,-0.52966 z m 10.85794,-1.85379 c -0.58715,-0.18804 -0.54793,-0.21502 0.34667,-0.23843 0.61077,-0.016 0.94416,0.0781 0.84506,0.23843 -0.18403,0.29776 -0.26197,0.29776 -1.19173,0 z m 6.37678,-7.04001 c 0.0127,-0.30851 0.0755,-0.37126 0.16,-0.16 0.0765,0.19117 0.0671,0.41959 -0.0209,0.50759 -0.088,0.088 -0.15059,-0.0684 -0.13909,-0.34759 z m -34.713361,-6.20138 c 0,-0.19421 0.07945,-0.27366 0.176552,-0.17656 0.0971,0.0971 0.0971,0.256 0,0.35311 -0.0971,0.0971 -0.176552,0.0177 -0.176552,-0.17655 z m 1.588967,-4.76691 c 0,-0.1942 0.07945,-0.27365 0.176552,-0.17655 0.0971,0.0971 0.0971,0.256 0,0.35311 -0.0971,0.0971 -0.176552,0.0176 -0.176552,-0.17656 z"
                 style="fill:#b7bec8;fill-opacity:1;stroke-width:0.264828" />
            </g>
          </g>
          <g
             transform="matrix(1.0103747,0,0,1.0121693,-2.2382079,6.1476639)"
             style="display:inline;opacity:0.901;fill:#b7bec8"
             id="g1487">
            <g
               style="display:inline;fill:#b7bec8"
               transform="translate(-250.23452,-115.77995)"
               id="g1479">
              <path
                 sodipodi:nodetypes="cssccccccccccccccccccssccsccsccsccccccccccccscscsccccsssccsccccscccccc"
                 inkscape:connector-curvature="0"
                 id="path1477"
                 d="m 321.50004,244.92959 c -0.5148,-0.51479 -0.33798,-2.08345 0.5722,-5.0764 0.4788,-1.57444 0.67672,-2.86262 0.4398,-2.86262 -0.2369,0 -1.17067,0.30915 -2.07504,0.68702 -2.00091,0.83603 -3.82215,0.89058 -3.82359,0.11442 -5.9e-4,-0.31488 0.90269,-1.91224 2.00725,-3.54966 l 2.0083,-2.97713 0.25761,-5.95429 c 0.26785,-6.19132 1.74737,-9.64178 2.75822,-12.45938 1.9331,-3.65303 1.92325,-3.68376 3.67526,-5.11832 l 2.21044,-0.96781 c 2.97779,-0.98965 6.8879,-1.30338 11.81711,-0.23339 5.89919,1.28053 11.11239,2.04483 14.00431,2.05314 2.30126,0.007 2.94947,-0.17034 3.74602,-1.02254 1.61433,-1.72714 2.15615,-4.90247 1.49554,-8.76449 -0.49994,-2.92267 -0.47817,-3.51147 0.17676,-4.77795 0.91525,-1.76991 2.60261,-2.29489 4.13952,-1.28785 0.61184,0.40089 1.87833,2.27858 2.81444,4.17267 1.80231,3.6467 3.32402,4.73392 2.73658,1.95522 -1.16579,-5.51467 -0.63642,-9.20853 1.4324,-9.99509 2.71576,-1.03253 4.43443,1.32306 4.98041,6.82617 0.47318,4.76947 0.13277,4.41487 5.08873,5.3001 11.01475,1.96744 18.01199,6.01211 18.01199,10.41164 0,2.60818 -1.59939,4.03894 -9.38944,8.39951 -3.52676,1.97415 -7.28825,4.08136 -8.35887,4.68269 -3.01459,1.69316 -2.63666,3.22295 2.3409,9.47575 1.37612,1.72868 1.36035,3.03632 -0.0364,3.01987 -0.44876,-0.005 -2.55726,-0.52056 -4.68556,-1.14505 -2.12831,-0.6245 -4.03482,-1.13545 -4.2367,-1.13545 -0.76015,0 -0.30492,0.99786 1.69406,3.71327 2.49955,3.3954 2.80149,5.44729 0.80153,5.44693 -1.40998,-2.6e-4 -4.55715,-1.11791 -9.87288,-3.50612 l -3.57509,-1.60619 -8.10444,0.31464 c -7.17988,0.27876 -20.31619,-0.24445 -23.90616,-0.95217 -0.91645,-0.18066 -2.05136,0.50797 -5.68448,3.44919 -4.59509,3.72002 -4.91368,3.91662 -5.46071,3.36959 z m 63.35956,-25.57284 c 2.62844,-2.67817 1.51903,-2.68733 -1.28621,-0.0104 -1.30208,1.24241 -1.87064,2.05466 -1.44277,2.06108 0.38839,0.005 1.61644,-0.91688 2.72898,-2.05047 z m -2.49026,-2.56698 c 1.62156,-0.78206 2.94828,-1.6065 2.94828,-1.83208 0,-0.59667 -0.25799,-0.53162 -2.95861,0.74599 -2.17425,1.02857 -4.09249,2.50802 -3.25188,2.50802 0.17259,0 1.64067,-0.63987 3.26221,-1.42193 z m -2.54797,-6.36442 c 0,-0.25192 -0.36068,-0.46262 -0.80154,-0.46821 -0.95957,-0.0121 -2.54969,-1.24084 -3.24705,-2.50894 -0.4914,-0.89358 -0.50411,-0.89129 -0.51768,0.093 -0.007,0.55494 0.22525,1.53397 0.51762,2.1756 0.43523,0.95528 0.85011,1.16661 2.29009,1.16661 0.96722,0 1.75856,-0.20611 1.75856,-0.45802 z m 0.89513,-2.49391 c 0.30208,-0.364 0.48191,-1.13692 0.39959,-1.71758 -0.11685,-0.82435 -0.43989,-1.05575 -1.47381,-1.05575 -1.84284,0 -2.57049,1.25221 -1.44824,2.4923 1.00418,1.1096 1.76448,1.19432 2.52246,0.28103 z m 15.90875,-6.32299 c 1.05722,-2.68768 3.00515,-5.72642 3.23287,-5.04326 0.21381,0.64144 -3.09275,6.98985 -3.64066,6.98985 -0.19686,0 -0.0139,-0.87597 0.40779,-1.94659 z m -2.82154,-1.71258 c 0.16134,-1.88659 0.49522,-3.74159 0.74192,-4.12219 0.30491,-0.47046 0.37466,0.3686 0.2178,2.62044 -0.12689,1.82186 -0.46075,3.67684 -0.74189,4.12219 -0.38935,0.6167 -0.44126,-0.009 -0.21783,-2.62044 z"
                 style="fill:#b7bec8;fill-opacity:1;stroke-width:0.458021" />
            </g>
            <g
               id="g1485"
               transform="matrix(0.98843581,0,0,1,-21.114591,-64.582535)"
               style="fill:#b7bec8">
              <path
                 style="fill:#b7bec8;fill-opacity:1;stroke-width:0.264828"
                 d="m 85.352787,129.97069 c -0.180961,-6.99841 -0.172087,-7.063 1.579519,-11.49561 0.502207,-1.27088 0.999212,-2.14303 1.221238,-2.14303 0.205915,0 0.675857,-0.68524 1.044315,-1.52276 1.047893,-2.38189 2.336254,-4.14217 4.353727,-5.94846 1.023024,-0.91594 1.943277,-1.67041 2.045007,-1.67661 0.101729,-0.006 0.886259,-0.46702 1.7434,-1.02406 2.397979,-1.5584 6.418747,-3.23204 8.240197,-3.42996 1.08707,-0.11813 1.46349,-0.0897 1.19172,0.0898 -0.29479,0.1948 -0.10695,0.26355 0.72828,0.26656 0.61903,0.002 1.12552,0.11978 1.12552,0.26122 0,0.14868 0.83749,0.23247 1.98511,0.19863 1.0918,-0.0322 1.9856,-0.13543 1.9862,-0.2294 0.001,-0.21247 2.85195,0.66345 4.42813,1.36067 0.68895,0.30475 1.65323,0.49752 2.33937,0.46766 0.99164,-0.0432 1.29955,0.0774 2.04617,0.80103 0.86043,0.83396 1.45939,1.13861 1.10215,0.56059 -0.32109,-0.51953 0.84039,0.22855 2.50266,1.61191 3.06787,2.5531 5.1985,5.97359 5.28094,8.47797 l 0.048,1.45655 -0.53974,-1.08713 c -0.45556,-0.91759 -0.64163,-1.06766 -1.19312,-0.96223 -0.35936,0.0687 -0.65339,0.28002 -0.65339,0.46961 0,0.62664 0.31615,1.18251 0.67256,1.18251 0.19308,0 0.40827,0.20855 0.4782,0.46345 0.20673,0.75359 0.43373,2.61114 0.27508,2.25104 -0.29925,-0.67927 -0.60655,-0.30213 -0.32368,0.39724 0.16201,0.40055 0.33252,1.25424 0.37891,1.89709 0.0464,0.64285 0.21174,1.24755 0.36744,1.34378 0.19675,0.1216 0.16528,0.61321 -0.10321,1.61188 -0.21247,0.7903 -0.39414,1.32475 -0.40373,1.18767 -0.039,-0.55763 -0.79569,0.83075 -0.80349,1.47422 -0.005,0.38243 -0.28682,1.33581 -0.62709,2.11862 -0.34027,0.78282 -0.7042,1.65831 -0.80874,1.94554 -0.15369,0.42231 -0.23425,0.45072 -0.42102,0.14851 -0.17455,-0.28243 -0.34897,-0.12349 -0.71403,0.65065 -0.26569,0.5634 -1.06031,1.56912 -1.76583,2.23493 -2.99404,2.82553 -5.95144,4.03338 -9.84,4.0188 -3.37769,-0.0127 -4.77099,-0.46721 -6.96518,-2.27229 -3.49774,-2.87748 -4.79556,-5.28632 -4.81102,-8.92955 -0.008,-1.7673 0.11015,-2.29451 0.88643,-3.97242 1.16967,-2.52819 3.15128,-4.71841 4.98456,-5.50926 2.63028,-1.13467 6.49736,-0.57466 8.14536,1.17956 l 0.57089,0.60768 -1.29638,-0.64157 c -3.35216,-1.65897 -8.28672,-0.2182 -10.3213,3.01355 -1.14945,1.82582 -1.94092,4.82452 -1.44116,5.46028 0.13444,0.17103 0.32531,0.83995 0.42414,1.48649 0.71996,4.70982 6.25622,8.83667 10.68435,7.96434 1.90015,-0.37433 2.9709,-0.73046 3.74008,-1.24395 0.38268,-0.25546 0.8255,-0.43755 0.98405,-0.40462 0.15854,0.0329 1.10744,-0.62813 2.10865,-1.46902 1.38017,-1.15916 1.86508,-1.74738 2.00517,-2.43235 0.10163,-0.49689 0.42307,-1.0908 0.71433,-1.31979 0.29125,-0.22899 0.70282,-0.95262 0.9146,-1.60807 0.52561,-1.62676 0.41161,-7.75156 -0.18439,-9.90663 -1.34524,-4.86418 -5.6407,-9.64138 -9.79943,-10.89845 -2.02502,-0.61211 -5.03572,-0.87143 -7.72207,-0.66513 -1.96715,0.15106 -2.70169,0.33869 -4.02778,1.02885 -0.89203,0.46425 -1.81827,0.8441 -2.0583,0.8441 -0.27913,0 -0.38148,0.14317 -0.28399,0.39724 0.11663,0.30392 -0.054,0.39724 -0.72641,0.39724 -1.110363,0 -3.355189,1.51503 -2.782349,1.8778 0.290314,0.18385 0.267401,0.23356 -0.109127,0.23677 -1.25314,0.0107 -4.130661,2.21781 -6.317849,4.84598 -0.7229,0.86865 -1.252194,1.74138 -1.176209,1.93939 0.07598,0.19801 -0.328508,1.34522 -0.898872,2.54936 -0.9884,2.08668 -1.052238,2.38249 -1.361477,6.30872 -0.291479,3.70073 -0.279266,4.25753 0.120169,5.47873 0.244541,0.74764 0.444621,1.77682 0.444621,2.28706 0,0.51025 0.113968,0.99815 0.253262,1.08424 0.139294,0.0861 0.190563,0.31992 0.113933,0.51961 -0.221319,0.57675 0.899257,2.53306 1.450937,2.53306 0.560952,0 1.117283,0.57422 1.73191,1.78759 0.441751,0.87209 0.275346,1.13456 -0.335803,0.52966 -0.472166,-0.46734 0.07714,0.95944 0.727014,1.88838 0.266915,0.38153 0.431439,0.84666 0.36561,1.03363 -0.06583,0.18696 0.03532,0.52671 0.224773,0.75499 0.189456,0.22828 0.367629,0.57288 0.395942,0.76579 0.06022,0.4103 1.518232,2.57565 2.182617,3.24149 0.251991,0.25255 0.789295,0.97531 1.194009,1.60614 0.473297,0.73773 0.870985,1.0951 1.114609,1.00162 -2.023516,0.36322 -11.105538,-14.28182 -12.829693,-22.80512 z m 26.258103,10.60983 c -1.70221,-0.41246 -4.82411,-1.92086 -5.01724,-2.42415 -0.0781,-0.20362 -0.22871,-0.31667 -0.33461,-0.25122 -0.1059,0.0654 -0.77865,-0.5009 -1.49501,-1.25855 -1.11506,-1.17933 -1.14052,-1.22705 -0.17695,-0.3316 0.61904,0.57527 1.12552,0.94803 1.12552,0.82836 0,-0.11968 0.41715,0.10058 0.927,0.48946 0.50985,0.38888 1.31427,0.88473 1.78759,1.10188 0.47332,0.21714 1.26451,0.64882 1.75818,0.95927 0.65197,0.40999 1.46585,0.59735 2.9741,0.68466 1.14208,0.0661 2.01223,0.22421 1.93368,0.35131 -0.19821,0.32072 -1.83125,0.25064 -3.48226,-0.14942 z m -5.36863,-2.91419 c 0,-0.0642 -0.13759,-0.20182 -0.30575,-0.30575 -0.18943,-0.11707 -0.23386,-0.0727 -0.11678,0.11678 0.18867,0.30528 0.42253,0.40987 0.42253,0.18897 z m -3.53742,-2.03967 c -0.4162,-0.57907 -0.69294,-1.11664 -0.61498,-1.1946 0.078,-0.078 0.45688,0.35746 0.84205,0.9676 0.90604,1.43526 0.75202,1.58923 -0.22707,0.227 z m 10.15811,-2.61045 c -0.28867,-0.18656 -0.0715,-0.25672 0.79449,-0.25672 0.86602,0 1.08316,0.0702 0.79448,0.25672 -0.21848,0.14119 -0.576,0.25672 -0.79448,0.25672 -0.21849,0 -0.576,-0.11553 -0.79449,-0.25672 z m 4.89932,-2.11862 c 0.09,-0.14566 0.22326,-0.26483 0.29609,-0.26483 0.0728,0 0.0588,0.11917 -0.0313,0.26483 -0.09,0.14565 -0.22326,0.26482 -0.29609,0.26482 -0.0728,0 -0.0588,-0.11917 0.0313,-0.26482 z m 1.57471,-4.78998 c -0.0979,-0.15835 -0.0453,-0.42053 0.11678,-0.58262 0.21641,-0.21641 0.29472,-0.13991 0.29472,0.2879 0,0.63943 -0.13757,0.73796 -0.4115,0.29472 z m -34.524874,-6.22245 c 0.01271,-0.30851 0.07546,-0.37126 0.16,-0.16 0.0765,0.19117 0.06709,0.41959 -0.02091,0.50759 -0.088,0.088 -0.150592,-0.0684 -0.139093,-0.34759 z m 1.472291,-4.74483 c 0.08384,-0.21849 0.255118,-0.39724 0.380619,-0.39724 0.125501,0 0.159587,0.17875 0.07575,0.39724 -0.08384,0.21848 -0.255118,0.39724 -0.380619,0.39724 -0.125501,0 -0.159587,-0.17876 -0.07575,-0.39724 z m 15.808893,-5.07587 c 0.0971,-0.0971 0.256,-0.0971 0.3531,0 0.0971,0.0971 0.0177,0.17655 -0.17655,0.17655 -0.19421,0 -0.27366,-0.0795 -0.17655,-0.17655 z"
                 id="path1481"
                 inkscape:connector-curvature="0"
                 sodipodi:nodetypes="ccscccscccsccccccccccssscccccsccccccccccccccccccccccccccsccscsccsccsssccscccccccscccccscsscccccsccscscccscsccscscccscccscccscsccssc" />
              <path
                 style="fill:#b7bec8;fill-opacity:1;stroke-width:0.264828"
                 d="m 100.47937,157.35327 c -5.590492,-3.86775 -11.703167,-9.01562 -14.403669,-19.43775 -0.80116,-3.09194 -1.039332,-13.68963 -0.355003,-15.79621 1.041889,-3.20727 2.051227,-5.53998 2.501307,-5.78086 0.263035,-0.14077 0.987078,-1.28311 1.608984,-2.53853 0.917709,-1.85255 1.550303,-2.6897 3.357753,-4.44351 1.224858,-1.18851 2.355434,-2.12569 2.512391,-2.08262 0.156956,0.0431 0.537192,-0.15203 0.844969,-0.43354 1.164686,-1.06529 7.622808,-4.18137 8.080148,-3.89872 0.10378,0.0641 0.63415,0.0161 1.17859,-0.10664 0.77108,-0.1739 0.93022,-0.15134 0.71991,0.10207 -0.30963,0.37308 -0.0683,0.40248 4.21958,0.51407 2.98038,0.0776 4.4434,0.39189 6.37136,1.36886 0.91665,0.4645 1.48266,0.58048 2.29872,0.47102 0.98393,-0.13197 1.17238,-0.0555 2.06712,0.83928 0.6496,0.6496 1.04858,0.88079 1.1729,0.67963 0.23368,-0.37809 2.23124,1.16895 4.12374,3.19368 2.06925,2.21384 3.35755,4.52162 3.39765,6.08632 0.0184,0.71595 0.007,1.30168 -0.0261,1.30163 -0.0327,-5e-5 -0.2437,-0.35648 -0.46895,-0.79207 -0.29796,-0.57618 -0.5666,-0.76801 -0.98592,-0.70402 -0.31701,0.0484 -0.6241,0.23113 -0.68242,0.40611 -0.17915,0.53745 0.20047,1.61955 0.56817,1.61955 0.1951,0 0.46745,0.52386 0.62083,1.19411 0.22866,0.99922 0.21433,1.14521 -0.0878,0.89448 -0.4508,-0.37414 -0.47275,-0.0181 -0.062,1.0059 0.16447,0.41003 0.27933,1.18368 0.25524,1.71922 -0.0245,0.54458 0.11922,1.12599 0.32608,1.31922 0.31649,0.29565 0.31427,0.5087 -0.0154,1.47615 -0.21189,0.62185 -0.48554,1.06866 -0.60812,0.9929 -0.12258,-0.0758 -0.30187,0.43064 -0.39843,1.12532 -0.23025,1.65645 -1.6647,4.83985 -2.10477,4.67098 -0.19875,-0.0763 -0.49951,0.29 -0.74792,0.91084 -0.87553,2.18816 -5.26773,5.20048 -8.58863,5.89039 -1.87847,0.39024 -5.58575,0.18852 -7.2288,-0.39333 -1.55683,-0.55131 -5.19327,-3.87917 -6.13022,-5.61 -0.86616,-1.60006 -1.39786,-4.2124 -1.19449,-5.86872 0.18692,-1.52236 1.1455,-3.92245 2.039,-5.10525 1.52131,-2.01387 2.04012,-2.47995 3.56185,-3.19986 2.2374,-1.05848 4.41355,-1.05494 6.66639,0.0108 0.8928,0.42236 1.69403,0.88244 1.78052,1.02238 0.0865,0.13994 -0.3453,0.006 -0.95953,-0.2981 -1.73894,-0.86036 -4.6154,-0.78048 -6.71491,0.18649 -3.8498,1.77308 -5.73748,5.61164 -4.73174,9.6219 0.91166,3.63515 2.86486,6.15566 5.85418,7.55454 2.92074,1.36677 5.34414,1.25985 8.84201,-0.39014 2.88795,-1.36228 5.29655,-3.49556 5.29655,-4.69112 0,-0.50192 0.16312,-0.81382 0.47785,-0.91372 0.26692,-0.0847 0.67851,-0.70969 0.93246,-1.41591 0.67659,-1.88152 0.4946,-8.50015 -0.30012,-10.91503 -0.79502,-2.41577 -2.29295,-4.82153 -4.18366,-6.7192 -3.30305,-3.31519 -5.90082,-4.27577 -11.50462,-4.25407 l -3.58774,0.0139 -2.23847,1.03846 c -1.23116,0.57115 -2.29806,1.11698 -2.37088,1.21296 -0.0728,0.096 -0.58387,0.2986 -1.13564,0.45026 -1.143915,0.31443 -2.992234,1.7929 -2.494209,1.99512 0.175723,0.0713 0.07179,0.13914 -0.230964,0.15064 -0.896685,0.034 -2.828758,1.47832 -4.955447,3.7043 -2.057585,2.15365 -2.814771,3.20213 -2.312504,3.20213 0.152611,0 -0.158771,0.864 -0.69196,1.92 -0.759452,1.50412 -1.045743,2.49363 -1.321729,4.56828 -0.433654,3.25988 -0.464195,6.99744 -0.06532,7.9938 0.164149,0.41004 0.333459,1.16262 0.376244,1.67242 0.233143,2.77797 0.827479,4.11643 2.057378,4.63326 0.463706,0.19487 1.051654,0.71035 1.30655,1.14552 0.568385,0.97037 0.59264,1.27881 0.06621,0.84191 -0.623132,-0.51715 -0.502375,0.2022 0.256867,1.53016 0.356251,0.62311 0.587737,1.28926 0.514414,1.48034 -0.07332,0.19107 0.05087,0.50027 0.275979,0.68709 0.225111,0.18683 0.409811,0.53365 0.410443,0.77071 0.0014,0.53741 4.14631,6.12482 4.543541,6.12482 0.418332,0 2.565937,1.70043 2.495537,2.02387 -0.074,0.33989 1.30292,0.98013 1.97606,1.3639 0.48251,0.27509 1.57893,0.7378 1.65075,0.92498 6.28872,4.09787 1.45165,1.75415 -3.71814,0.16225 z m 11.66035,-16.84058 c 0.25767,-0.0671 0.61518,-0.0627 0.79448,0.01 0.1793,0.0725 -0.0315,0.12748 -0.46849,0.12208 -0.43696,-0.005 -0.58366,-0.0648 -0.32599,-0.13189 z m -1.18022,-0.26221 c 0.19117,-0.0765 0.41959,-0.0671 0.50759,0.0209 0.088,0.088 -0.0684,0.15059 -0.34759,0.13909 -0.30851,-0.0127 -0.37126,-0.0755 -0.16,-0.16 z m -2.38108,-0.88582 c -1.26679,-0.65404 -2.13705,-1.31672 -1.72917,-1.31672 0.17382,0 2.60819,1.3202 3.20436,1.73777 0.89388,0.6261 0.13159,0.40852 -1.47519,-0.42105 z m -4.08271,-2.9719 -0.50449,-0.59586 0.59586,0.5045 c 0.55997,0.4741 0.71643,0.68723 0.5045,0.68723 -0.0503,0 -0.31839,-0.26814 -0.59587,-0.59587 z m -1.58909,-0.50436 c -0.11708,-0.18943 -0.0727,-0.23386 0.11678,-0.11679 0.30529,0.18868 0.40987,0.42253 0.18897,0.42253 -0.0642,0 -0.20182,-0.13758 -0.30575,-0.30574 z m -0.63678,-1.0184 c -0.15591,-0.29131 -0.22388,-0.52965 -0.15105,-0.52965 0.0728,0 0.25997,0.23834 0.41588,0.52965 0.1559,0.29131 0.22387,0.52966 0.15105,0.52966 -0.0728,0 -0.25998,-0.23835 -0.41588,-0.52966 z m 10.85794,-1.85379 c -0.58715,-0.18804 -0.54793,-0.21502 0.34667,-0.23843 0.61077,-0.016 0.94416,0.0781 0.84506,0.23843 -0.18403,0.29776 -0.26197,0.29776 -1.19173,0 z m 6.37678,-7.04001 c 0.0127,-0.30851 0.0755,-0.37126 0.16,-0.16 0.0765,0.19117 0.0671,0.41959 -0.0209,0.50759 -0.088,0.088 -0.15059,-0.0684 -0.13909,-0.34759 z m -34.713361,-6.20138 c 0,-0.19421 0.07945,-0.27366 0.176552,-0.17656 0.0971,0.0971 0.0971,0.256 0,0.35311 -0.0971,0.0971 -0.176552,0.0177 -0.176552,-0.17655 z m 1.588967,-4.76691 c 0,-0.1942 0.07945,-0.27365 0.176552,-0.17655 0.0971,0.0971 0.0971,0.256 0,0.35311 -0.0971,0.0971 -0.176552,0.0176 -0.176552,-0.17656 z"
                 id="path1483"
                 inkscape:connector-curvature="0"
                 sodipodi:nodetypes="csscssccccccscccccccccsccccccccccccscccccccccsscccccccccccsssscscccccccscsccccccccsccccscccccscccsccscscccccccsccsccssccs" />
            </g>
          </g>
          <g
             style="display:inline;opacity:1;stroke:#d00080;stroke-width:1;stroke-miterlimit:4;stroke-dasharray:none;stroke-opacity:0"
             id="g1499"
             transform="translate(-0.52916668,7.4085437)">
            <g
               style="display:inline;stroke:#15003d;stroke-width:1;stroke-miterlimit:4;stroke-dasharray:none;stroke-opacity:0.12"
               transform="translate(-250.23452,-115.77995)"
               id="g1491">
              <path
                 sodipodi:nodetypes="cssccccccccccccccccccssccsccsccsccccccccccccscscsccccsssccsccccscccccc"
                 inkscape:connector-curvature="0"
                 id="path1489"
                 d="m 321.50004,244.92959 c -0.5148,-0.51479 -0.33798,-2.08345 0.5722,-5.0764 0.4788,-1.57444 0.67672,-2.86262 0.4398,-2.86262 -0.2369,0 -1.17067,0.30915 -2.07504,0.68702 -2.00091,0.83603 -3.82215,0.89058 -3.82359,0.11442 -5.9e-4,-0.31488 0.90269,-1.91224 2.00725,-3.54966 l 2.0083,-2.97713 0.25761,-5.95429 c 0.26785,-6.19132 1.74737,-9.64178 2.75822,-12.45938 1.9331,-3.65303 1.92325,-3.68376 3.67526,-5.11832 l 2.21044,-0.96781 c 2.97779,-0.98965 6.8879,-1.30338 11.81711,-0.23339 5.89919,1.28053 11.11239,2.04483 14.00431,2.05314 2.30126,0.007 2.94947,-0.17034 3.74602,-1.02254 1.61433,-1.72714 2.15615,-4.90247 1.49554,-8.76449 -0.49994,-2.92267 -0.47817,-3.51147 0.17676,-4.77795 0.91525,-1.76991 2.60261,-2.29489 4.13952,-1.28785 0.61184,0.40089 1.87833,2.27858 2.81444,4.17267 1.80231,3.6467 3.32402,4.73392 2.73658,1.95522 -1.16579,-5.51467 -0.63642,-9.20853 1.4324,-9.99509 2.71576,-1.03253 4.43443,1.32306 4.98041,6.82617 0.47318,4.76947 0.13277,4.41487 5.08873,5.3001 11.01475,1.96744 18.01199,6.01211 18.01199,10.41164 0,2.60818 -1.59939,4.03894 -9.38944,8.39951 -3.52676,1.97415 -7.28825,4.08136 -8.35887,4.68269 -3.01459,1.69316 -2.63666,3.22295 2.3409,9.47575 1.37612,1.72868 1.36035,3.03632 -0.0364,3.01987 -0.44876,-0.005 -2.55726,-0.52056 -4.68556,-1.14505 -2.12831,-0.6245 -4.03482,-1.13545 -4.2367,-1.13545 -0.76015,0 -0.30492,0.99786 1.69406,3.71327 2.49955,3.3954 2.80149,5.44729 0.80153,5.44693 -1.40998,-2.6e-4 -4.55715,-1.11791 -9.87288,-3.50612 l -3.57509,-1.60619 -8.10444,0.31464 c -7.17988,0.27876 -20.31619,-0.24445 -23.90616,-0.95217 -0.91645,-0.18066 -2.05136,0.50797 -5.68448,3.44919 -4.59509,3.72002 -4.91368,3.91662 -5.46071,3.36959 z m 63.35956,-25.57284 c 2.62844,-2.67817 1.51903,-2.68733 -1.28621,-0.0104 -1.30208,1.24241 -1.87064,2.05466 -1.44277,2.06108 0.38839,0.005 1.61644,-0.91688 2.72898,-2.05047 z m -2.49026,-2.56698 c 1.62156,-0.78206 2.94828,-1.6065 2.94828,-1.83208 0,-0.59667 -0.25799,-0.53162 -2.95861,0.74599 -2.17425,1.02857 -4.09249,2.50802 -3.25188,2.50802 0.17259,0 1.64067,-0.63987 3.26221,-1.42193 z m -2.54797,-6.36442 c 0,-0.25192 -0.36068,-0.46262 -0.80154,-0.46821 -0.95957,-0.0121 -2.54969,-1.24084 -3.24705,-2.50894 -0.4914,-0.89358 -0.50411,-0.89129 -0.51768,0.093 -0.007,0.55494 0.22525,1.53397 0.51762,2.1756 0.43523,0.95528 0.85011,1.16661 2.29009,1.16661 0.96722,0 1.75856,-0.20611 1.75856,-0.45802 z m 0.89513,-2.49391 c 0.30208,-0.364 0.48191,-1.13692 0.39959,-1.71758 -0.11685,-0.82435 -0.43989,-1.05575 -1.47381,-1.05575 -1.84284,0 -2.57049,1.25221 -1.44824,2.4923 1.00418,1.1096 1.76448,1.19432 2.52246,0.28103 z m 15.90875,-6.32299 c 1.05722,-2.68768 3.00515,-5.72642 3.23287,-5.04326 0.21381,0.64144 -3.09275,6.98985 -3.64066,6.98985 -0.19686,0 -0.0139,-0.87597 0.40779,-1.94659 z m -2.82154,-1.71258 c 0.16134,-1.88659 0.49522,-3.74159 0.74192,-4.12219 0.30491,-0.47046 0.37466,0.3686 0.2178,2.62044 -0.12689,1.82186 -0.46075,3.67684 -0.74189,4.12219 -0.38935,0.6167 -0.44126,-0.009 -0.21783,-2.62044 z"
                 style="fill:#000000;fill-opacity:1;stroke:#15003d;stroke-width:1;stroke-miterlimit:4;stroke-dasharray:none;stroke-opacity:0.12" />
            </g>
            <g
               id="g1497"
               transform="translate(-23.659608,-65.10534)"
               style="fill:#000000;stroke:#d00080;stroke-width:1;stroke-miterlimit:4;stroke-dasharray:none;stroke-opacity:0">
              <path
                 style="fill:#000000;fill-opacity:1;stroke:#d00080;stroke-width:1;stroke-miterlimit:4;stroke-dasharray:none;stroke-opacity:0"
                 d="m 85.352787,129.97069 c -0.180961,-6.99841 -0.172087,-7.063 1.579519,-11.49561 0.502207,-1.27088 0.999212,-2.14303 1.221238,-2.14303 0.205915,0 0.675857,-0.68524 1.044315,-1.52276 1.047893,-2.38189 2.336254,-4.14217 4.353727,-5.94846 1.023024,-0.91594 1.943277,-1.67041 2.045007,-1.67661 0.101729,-0.006 0.886259,-0.46702 1.7434,-1.02406 2.397979,-1.5584 6.418747,-3.23204 8.240197,-3.42996 1.08707,-0.11813 1.46349,-0.0897 1.19172,0.0898 -0.29479,0.1948 -0.10695,0.26355 0.72828,0.26656 0.61903,0.002 1.12552,0.11978 1.12552,0.26122 0,0.14868 0.83749,0.23247 1.98511,0.19863 1.0918,-0.0322 1.9856,-0.13543 1.9862,-0.2294 0.001,-0.21247 2.85195,0.66345 4.42813,1.36067 0.68895,0.30475 1.65323,0.49752 2.33937,0.46766 0.99164,-0.0432 1.29955,0.0774 2.04617,0.80103 0.86043,0.83396 1.45939,1.13861 1.10215,0.56059 -0.32109,-0.51953 0.84039,0.22855 2.50266,1.61191 3.06787,2.5531 5.1985,5.97359 5.28094,8.47797 l 0.048,1.45655 -0.53974,-1.08713 c -0.45556,-0.91759 -0.64163,-1.06766 -1.19312,-0.96223 -0.35936,0.0687 -0.65339,0.28002 -0.65339,0.46961 0,0.62664 0.31615,1.18251 0.67256,1.18251 0.19308,0 0.40827,0.20855 0.4782,0.46345 0.20673,0.75359 0.43373,2.61114 0.27508,2.25104 -0.29925,-0.67927 -0.60655,-0.30213 -0.32368,0.39724 0.16201,0.40055 0.33252,1.25424 0.37891,1.89709 0.0464,0.64285 0.21174,1.24755 0.36744,1.34378 0.19675,0.1216 0.16528,0.61321 -0.10321,1.61188 -0.21247,0.7903 -0.39414,1.32475 -0.40373,1.18767 -0.039,-0.55763 -0.79569,0.83075 -0.80349,1.47422 -0.005,0.38243 -0.28682,1.33581 -0.62709,2.11862 -0.34027,0.78282 -0.7042,1.65831 -0.80874,1.94554 -0.15369,0.42231 -0.23425,0.45072 -0.42102,0.14851 -0.17455,-0.28243 -0.34897,-0.12349 -0.71403,0.65065 -0.26569,0.5634 -1.06031,1.56912 -1.76583,2.23493 -2.99404,2.82553 -5.95144,4.03338 -9.84,4.0188 -3.37769,-0.0127 -4.77099,-0.46721 -6.96518,-2.27229 -3.49774,-2.87748 -4.79556,-5.28632 -4.81102,-8.92955 -0.008,-1.7673 0.11015,-2.29451 0.88643,-3.97242 1.16967,-2.52819 3.15128,-4.71841 4.98456,-5.50926 2.63028,-1.13467 6.49736,-0.57466 8.14536,1.17956 l 0.57089,0.60768 -1.29638,-0.64157 c -3.35216,-1.65897 -8.28672,-0.2182 -10.3213,3.01355 -1.14945,1.82582 -1.94092,4.82452 -1.44116,5.46028 0.13444,0.17103 0.32531,0.83995 0.42414,1.48649 0.71996,4.70982 6.25622,8.83667 10.68435,7.96434 1.90015,-0.37433 2.9709,-0.73046 3.74008,-1.24395 0.38268,-0.25546 0.8255,-0.43755 0.98405,-0.40462 0.15854,0.0329 1.10744,-0.62813 2.10865,-1.46902 1.38017,-1.15916 1.86508,-1.74738 2.00517,-2.43235 0.10163,-0.49689 0.42307,-1.0908 0.71433,-1.31979 0.29125,-0.22899 0.70282,-0.95262 0.9146,-1.60807 0.52561,-1.62676 0.41161,-7.75156 -0.18439,-9.90663 -1.34524,-4.86418 -5.6407,-9.64138 -9.79943,-10.89845 -2.02502,-0.61211 -5.03572,-0.87143 -7.72207,-0.66513 -1.96715,0.15106 -2.70169,0.33869 -4.02778,1.02885 -0.89203,0.46425 -1.81827,0.8441 -2.0583,0.8441 -0.27913,0 -0.38148,0.14317 -0.28399,0.39724 0.11663,0.30392 -0.054,0.39724 -0.72641,0.39724 -1.110363,0 -3.355189,1.51503 -2.782349,1.8778 0.290314,0.18385 0.267401,0.23356 -0.109127,0.23677 -1.25314,0.0107 -4.130661,2.21781 -6.317849,4.84598 -0.7229,0.86865 -1.252194,1.74138 -1.176209,1.93939 0.07598,0.19801 -0.328508,1.34522 -0.898872,2.54936 -0.9884,2.08668 -1.052238,2.38249 -1.361477,6.30872 -0.291479,3.70073 -0.279266,4.25753 0.120169,5.47873 0.244541,0.74764 0.444621,1.77682 0.444621,2.28706 0,0.51025 0.113968,0.99815 0.253262,1.08424 0.139294,0.0861 0.190563,0.31992 0.113933,0.51961 -0.221319,0.57675 0.899257,2.53306 1.450937,2.53306 0.560952,0 1.117283,0.57422 1.73191,1.78759 0.441751,0.87209 0.275346,1.13456 -0.335803,0.52966 -0.472166,-0.46734 0.07714,0.95944 0.727014,1.88838 0.266915,0.38153 0.431439,0.84666 0.36561,1.03363 -0.06583,0.18696 0.03532,0.52671 0.224773,0.75499 0.189456,0.22828 0.367629,0.57288 0.395942,0.76579 0.06022,0.4103 1.518232,2.57565 2.182617,3.24149 0.251991,0.25255 0.789295,0.97531 1.194009,1.60614 0.473297,0.73773 0.870985,1.0951 1.114609,1.00162 -2.023516,0.36322 -11.105538,-14.28182 -12.829693,-22.80512 z m 26.258103,10.60983 c -1.70221,-0.41246 -4.82411,-1.92086 -5.01724,-2.42415 -0.0781,-0.20362 -0.22871,-0.31667 -0.33461,-0.25122 -0.1059,0.0654 -0.77865,-0.5009 -1.49501,-1.25855 -1.11506,-1.17933 -1.14052,-1.22705 -0.17695,-0.3316 0.61904,0.57527 1.12552,0.94803 1.12552,0.82836 0,-0.11968 0.41715,0.10058 0.927,0.48946 0.50985,0.38888 1.31427,0.88473 1.78759,1.10188 0.47332,0.21714 1.26451,0.64882 1.75818,0.95927 0.65197,0.40999 1.46585,0.59735 2.9741,0.68466 1.14208,0.0661 2.01223,0.22421 1.93368,0.35131 -0.19821,0.32072 -1.83125,0.25064 -3.48226,-0.14942 z m -5.36863,-2.91419 c 0,-0.0642 -0.13759,-0.20182 -0.30575,-0.30575 -0.18943,-0.11707 -0.23386,-0.0727 -0.11678,0.11678 0.18867,0.30528 0.42253,0.40987 0.42253,0.18897 z m -3.53742,-2.03967 c -0.4162,-0.57907 -0.69294,-1.11664 -0.61498,-1.1946 0.078,-0.078 0.45688,0.35746 0.84205,0.9676 0.90604,1.43526 0.75202,1.58923 -0.22707,0.227 z m 10.15811,-2.61045 c -0.28867,-0.18656 -0.0715,-0.25672 0.79449,-0.25672 0.86602,0 1.08316,0.0702 0.79448,0.25672 -0.21848,0.14119 -0.576,0.25672 -0.79448,0.25672 -0.21849,0 -0.576,-0.11553 -0.79449,-0.25672 z m 4.89932,-2.11862 c 0.09,-0.14566 0.22326,-0.26483 0.29609,-0.26483 0.0728,0 0.0588,0.11917 -0.0313,0.26483 -0.09,0.14565 -0.22326,0.26482 -0.29609,0.26482 -0.0728,0 -0.0588,-0.11917 0.0313,-0.26482 z m 1.57471,-4.78998 c -0.0979,-0.15835 -0.0453,-0.42053 0.11678,-0.58262 0.21641,-0.21641 0.29472,-0.13991 0.29472,0.2879 0,0.63943 -0.13757,0.73796 -0.4115,0.29472 z m -34.524874,-6.22245 c 0.01271,-0.30851 0.07546,-0.37126 0.16,-0.16 0.0765,0.19117 0.06709,0.41959 -0.02091,0.50759 -0.088,0.088 -0.150592,-0.0684 -0.139093,-0.34759 z m 1.472291,-4.74483 c 0.08384,-0.21849 0.255118,-0.39724 0.380619,-0.39724 0.125501,0 0.159587,0.17875 0.07575,0.39724 -0.08384,0.21848 -0.255118,0.39724 -0.380619,0.39724 -0.125501,0 -0.159587,-0.17876 -0.07575,-0.39724 z m 15.808893,-5.07587 c 0.0971,-0.0971 0.256,-0.0971 0.3531,0 0.0971,0.0971 0.0177,0.17655 -0.17655,0.17655 -0.19421,0 -0.27366,-0.0795 -0.17655,-0.17655 z"
                 id="path1493"
                 inkscape:connector-curvature="0"
                 sodipodi:nodetypes="ccscccscccsccccccccccssscccccsccccccccccccccccccccccccccsccscsccsccsssccscccccccscccccscsscccccsccscscccscsccscscccscccscccscsccssc" />
              <path
                 style="fill:#000000;fill-opacity:1;stroke:#d00080;stroke-width:1;stroke-miterlimit:4;stroke-dasharray:none;stroke-opacity:0"
                 d="m 100.47937,157.35327 c -5.590492,-3.86775 -11.703167,-9.01562 -14.403669,-19.43775 -0.80116,-3.09194 -1.039332,-13.68963 -0.355003,-15.79621 1.041889,-3.20727 2.051227,-5.53998 2.501307,-5.78086 0.263035,-0.14077 0.987078,-1.28311 1.608984,-2.53853 0.917709,-1.85255 1.550303,-2.6897 3.357753,-4.44351 1.224858,-1.18851 2.355434,-2.12569 2.512391,-2.08262 0.156956,0.0431 0.537192,-0.15203 0.844969,-0.43354 1.164686,-1.06529 7.622808,-4.18137 8.080148,-3.89872 0.10378,0.0641 0.63415,0.0161 1.17859,-0.10664 0.77108,-0.1739 0.93022,-0.15134 0.71991,0.10207 -0.30963,0.37308 -0.0683,0.40248 4.21958,0.51407 2.98038,0.0776 4.4434,0.39189 6.37136,1.36886 0.91665,0.4645 1.48266,0.58048 2.29872,0.47102 0.98393,-0.13197 1.17238,-0.0555 2.06712,0.83928 0.6496,0.6496 1.04858,0.88079 1.1729,0.67963 0.23368,-0.37809 2.23124,1.16895 4.12374,3.19368 2.06925,2.21384 3.35755,4.52162 3.39765,6.08632 0.0184,0.71595 0.007,1.30168 -0.0261,1.30163 -0.0327,-5e-5 -0.2437,-0.35648 -0.46895,-0.79207 -0.29796,-0.57618 -0.5666,-0.76801 -0.98592,-0.70402 -0.31701,0.0484 -0.6241,0.23113 -0.68242,0.40611 -0.17915,0.53745 0.20047,1.61955 0.56817,1.61955 0.1951,0 0.46745,0.52386 0.62083,1.19411 0.22866,0.99922 0.21433,1.14521 -0.0878,0.89448 -0.4508,-0.37414 -0.47275,-0.0181 -0.062,1.0059 0.16447,0.41003 0.27933,1.18368 0.25524,1.71922 -0.0245,0.54458 0.11922,1.12599 0.32608,1.31922 0.31649,0.29565 0.31427,0.5087 -0.0154,1.47615 -0.21189,0.62185 -0.48554,1.06866 -0.60812,0.9929 -0.12258,-0.0758 -0.30187,0.43064 -0.39843,1.12532 -0.23025,1.65645 -1.6647,4.83985 -2.10477,4.67098 -0.19875,-0.0763 -0.49951,0.29 -0.74792,0.91084 -0.87553,2.18816 -5.26773,5.20048 -8.58863,5.89039 -1.87847,0.39024 -5.58575,0.18852 -7.2288,-0.39333 -1.55683,-0.55131 -5.19327,-3.87917 -6.13022,-5.61 -0.86616,-1.60006 -1.39786,-4.2124 -1.19449,-5.86872 0.18692,-1.52236 1.1455,-3.92245 2.039,-5.10525 1.52131,-2.01387 2.04012,-2.47995 3.56185,-3.19986 2.2374,-1.05848 4.41355,-1.05494 6.66639,0.0108 0.8928,0.42236 1.69403,0.88244 1.78052,1.02238 0.0865,0.13994 -0.3453,0.006 -0.95953,-0.2981 -1.73894,-0.86036 -4.6154,-0.78048 -6.71491,0.18649 -3.8498,1.77308 -5.73748,5.61164 -4.73174,9.6219 0.91166,3.63515 2.86486,6.15566 5.85418,7.55454 2.92074,1.36677 5.34414,1.25985 8.84201,-0.39014 2.88795,-1.36228 5.29655,-3.49556 5.29655,-4.69112 0,-0.50192 0.16312,-0.81382 0.47785,-0.91372 0.26692,-0.0847 0.67851,-0.70969 0.93246,-1.41591 0.67659,-1.88152 0.4946,-8.50015 -0.30012,-10.91503 -0.79502,-2.41577 -2.29295,-4.82153 -4.18366,-6.7192 -3.30305,-3.31519 -5.90082,-4.27577 -11.50462,-4.25407 l -3.58774,0.0139 -2.23847,1.03846 c -1.23116,0.57115 -2.29806,1.11698 -2.37088,1.21296 -0.0728,0.096 -0.58387,0.2986 -1.13564,0.45026 -1.143915,0.31443 -2.992234,1.7929 -2.494209,1.99512 0.175723,0.0713 0.07179,0.13914 -0.230964,0.15064 -0.896685,0.034 -2.828758,1.47832 -4.955447,3.7043 -2.057585,2.15365 -2.814771,3.20213 -2.312504,3.20213 0.152611,0 -0.158771,0.864 -0.69196,1.92 -0.759452,1.50412 -1.045743,2.49363 -1.321729,4.56828 -0.433654,3.25988 -0.464195,6.99744 -0.06532,7.9938 0.164149,0.41004 0.333459,1.16262 0.376244,1.67242 0.233143,2.77797 0.827479,4.11643 2.057378,4.63326 0.463706,0.19487 1.051654,0.71035 1.30655,1.14552 0.568385,0.97037 0.59264,1.27881 0.06621,0.84191 -0.623132,-0.51715 -0.502375,0.2022 0.256867,1.53016 0.356251,0.62311 0.587737,1.28926 0.514414,1.48034 -0.07332,0.19107 0.05087,0.50027 0.275979,0.68709 0.225111,0.18683 0.409811,0.53365 0.410443,0.77071 0.0014,0.53741 4.14631,6.12482 4.543541,6.12482 0.418332,0 2.565937,1.70043 2.495537,2.02387 -0.074,0.33989 1.30292,0.98013 1.97606,1.3639 0.48251,0.27509 1.57893,0.7378 1.65075,0.92498 6.28872,4.09787 1.45165,1.75415 -3.71814,0.16225 z m 11.66035,-16.84058 c 0.25767,-0.0671 0.61518,-0.0627 0.79448,0.01 0.1793,0.0725 -0.0315,0.12748 -0.46849,0.12208 -0.43696,-0.005 -0.58366,-0.0648 -0.32599,-0.13189 z m -1.18022,-0.26221 c 0.19117,-0.0765 0.41959,-0.0671 0.50759,0.0209 0.088,0.088 -0.0684,0.15059 -0.34759,0.13909 -0.30851,-0.0127 -0.37126,-0.0755 -0.16,-0.16 z m -2.38108,-0.88582 c -1.26679,-0.65404 -2.13705,-1.31672 -1.72917,-1.31672 0.17382,0 2.60819,1.3202 3.20436,1.73777 0.89388,0.6261 0.13159,0.40852 -1.47519,-0.42105 z m -4.08271,-2.9719 -0.50449,-0.59586 0.59586,0.5045 c 0.55997,0.4741 0.71643,0.68723 0.5045,0.68723 -0.0503,0 -0.31839,-0.26814 -0.59587,-0.59587 z m -1.58909,-0.50436 c -0.11708,-0.18943 -0.0727,-0.23386 0.11678,-0.11679 0.30529,0.18868 0.40987,0.42253 0.18897,0.42253 -0.0642,0 -0.20182,-0.13758 -0.30575,-0.30574 z m -0.63678,-1.0184 c -0.15591,-0.29131 -0.22388,-0.52965 -0.15105,-0.52965 0.0728,0 0.25997,0.23834 0.41588,0.52965 0.1559,0.29131 0.22387,0.52966 0.15105,0.52966 -0.0728,0 -0.25998,-0.23835 -0.41588,-0.52966 z m 10.85794,-1.85379 c -0.58715,-0.18804 -0.54793,-0.21502 0.34667,-0.23843 0.61077,-0.016 0.94416,0.0781 0.84506,0.23843 -0.18403,0.29776 -0.26197,0.29776 -1.19173,0 z m 6.37678,-7.04001 c 0.0127,-0.30851 0.0755,-0.37126 0.16,-0.16 0.0765,0.19117 0.0671,0.41959 -0.0209,0.50759 -0.088,0.088 -0.15059,-0.0684 -0.13909,-0.34759 z m -34.713361,-6.20138 c 0,-0.19421 0.07945,-0.27366 0.176552,-0.17656 0.0971,0.0971 0.0971,0.256 0,0.35311 -0.0971,0.0971 -0.176552,0.0177 -0.176552,-0.17655 z m 1.588967,-4.76691 c 0,-0.1942 0.07945,-0.27365 0.176552,-0.17655 0.0971,0.0971 0.0971,0.256 0,0.35311 -0.0971,0.0971 -0.176552,0.0176 -0.176552,-0.17656 z"
                 id="path1495"
                 inkscape:connector-curvature="0"
                 sodipodi:nodetypes="csscssccccccscccccccccsccccccccccccscccccccccsscccccccccccsssscscccccccscsccccccccsccccscccccscccsccscscccccccsccsccssccs" />
            </g>
          </g>
          <g
             transform="matrix(0.01021706,0.00663503,-0.00663503,0.01021706,104.11458,57.834266)"
             style="display:inline"
             id="g1511">
            <g
               style="display:inline"
               transform="translate(-250.23452,-115.77995)"
               id="g1503">
              <path
                 sodipodi:nodetypes="cssccccccccccccccccccssccsccsccsccccccccccccscscsccccsssccsccccscccccc"
                 inkscape:connector-curvature="0"
                 id="path1501"
                 d="m 321.50004,244.92959 c -0.5148,-0.51479 -0.33798,-2.08345 0.5722,-5.0764 0.4788,-1.57444 0.67672,-2.86262 0.4398,-2.86262 -0.2369,0 -1.17067,0.30915 -2.07504,0.68702 -2.00091,0.83603 -3.82215,0.89058 -3.82359,0.11442 -5.9e-4,-0.31488 0.90269,-1.91224 2.00725,-3.54966 l 2.0083,-2.97713 0.25761,-5.95429 c 0.26785,-6.19132 1.74737,-9.64178 2.75822,-12.45938 1.9331,-3.65303 1.92325,-3.68376 3.67526,-5.11832 l 2.21044,-0.96781 c 2.97779,-0.98965 6.8879,-1.30338 11.81711,-0.23339 5.89919,1.28053 11.11239,2.04483 14.00431,2.05314 2.30126,0.007 2.94947,-0.17034 3.74602,-1.02254 1.61433,-1.72714 2.15615,-4.90247 1.49554,-8.76449 -0.49994,-2.92267 -0.47817,-3.51147 0.17676,-4.77795 0.91525,-1.76991 2.60261,-2.29489 4.13952,-1.28785 0.61184,0.40089 1.87833,2.27858 2.81444,4.17267 1.80231,3.6467 3.32402,4.73392 2.73658,1.95522 -1.16579,-5.51467 -0.63642,-9.20853 1.4324,-9.99509 2.71576,-1.03253 4.43443,1.32306 4.98041,6.82617 0.47318,4.76947 0.13277,4.41487 5.08873,5.3001 11.01475,1.96744 18.01199,6.01211 18.01199,10.41164 0,2.60818 -1.59939,4.03894 -9.38944,8.39951 -3.52676,1.97415 -7.28825,4.08136 -8.35887,4.68269 -3.01459,1.69316 -2.63666,3.22295 2.3409,9.47575 1.37612,1.72868 1.36035,3.03632 -0.0364,3.01987 -0.44876,-0.005 -2.55726,-0.52056 -4.68556,-1.14505 -2.12831,-0.6245 -4.03482,-1.13545 -4.2367,-1.13545 -0.76015,0 -0.30492,0.99786 1.69406,3.71327 2.49955,3.3954 2.80149,5.44729 0.80153,5.44693 -1.40998,-2.6e-4 -4.55715,-1.11791 -9.87288,-3.50612 l -3.57509,-1.60619 -8.10444,0.31464 c -7.17988,0.27876 -20.31619,-0.24445 -23.90616,-0.95217 -0.91645,-0.18066 -2.05136,0.50797 -5.68448,3.44919 -4.59509,3.72002 -4.91368,3.91662 -5.46071,3.36959 z m 63.35956,-25.57284 c 2.62844,-2.67817 1.51903,-2.68733 -1.28621,-0.0104 -1.30208,1.24241 -1.87064,2.05466 -1.44277,2.06108 0.38839,0.005 1.61644,-0.91688 2.72898,-2.05047 z m -2.49026,-2.56698 c 1.62156,-0.78206 2.94828,-1.6065 2.94828,-1.83208 0,-0.59667 -0.25799,-0.53162 -2.95861,0.74599 -2.17425,1.02857 -4.09249,2.50802 -3.25188,2.50802 0.17259,0 1.64067,-0.63987 3.26221,-1.42193 z m -2.54797,-6.36442 c 0,-0.25192 -0.36068,-0.46262 -0.80154,-0.46821 -0.95957,-0.0121 -2.54969,-1.24084 -3.24705,-2.50894 -0.4914,-0.89358 -0.50411,-0.89129 -0.51768,0.093 -0.007,0.55494 0.22525,1.53397 0.51762,2.1756 0.43523,0.95528 0.85011,1.16661 2.29009,1.16661 0.96722,0 1.75856,-0.20611 1.75856,-0.45802 z m 0.89513,-2.49391 c 0.30208,-0.364 0.48191,-1.13692 0.39959,-1.71758 -0.11685,-0.82435 -0.43989,-1.05575 -1.47381,-1.05575 -1.84284,0 -2.57049,1.25221 -1.44824,2.4923 1.00418,1.1096 1.76448,1.19432 2.52246,0.28103 z m 15.90875,-6.32299 c 1.05722,-2.68768 3.00515,-5.72642 3.23287,-5.04326 0.21381,0.64144 -3.09275,6.98985 -3.64066,6.98985 -0.19686,0 -0.0139,-0.87597 0.40779,-1.94659 z m -2.82154,-1.71258 c 0.16134,-1.88659 0.49522,-3.74159 0.74192,-4.12219 0.30491,-0.47046 0.37466,0.3686 0.2178,2.62044 -0.12689,1.82186 -0.46075,3.67684 -0.74189,4.12219 -0.38935,0.6167 -0.44126,-0.009 -0.21783,-2.62044 z"
                 style="fill:#000000;fill-opacity:1;stroke-width:0.458021" />
            </g>
            <g
               id="g1509"
               transform="translate(-23.659608,-65.10534)"
               style="fill:#000000">
              <path
                 style="fill:#000000;fill-opacity:1;stroke-width:0.264828"
                 d="m 85.352787,129.97069 c -0.180961,-6.99841 -0.172087,-7.063 1.579519,-11.49561 0.502207,-1.27088 0.999212,-2.14303 1.221238,-2.14303 0.205915,0 0.675857,-0.68524 1.044315,-1.52276 1.047893,-2.38189 2.336254,-4.14217 4.353727,-5.94846 1.023024,-0.91594 1.943277,-1.67041 2.045007,-1.67661 0.101729,-0.006 0.886259,-0.46702 1.7434,-1.02406 2.397979,-1.5584 6.418747,-3.23204 8.240197,-3.42996 1.08707,-0.11813 1.46349,-0.0897 1.19172,0.0898 -0.29479,0.1948 -0.10695,0.26355 0.72828,0.26656 0.61903,0.002 1.12552,0.11978 1.12552,0.26122 0,0.14868 0.83749,0.23247 1.98511,0.19863 1.0918,-0.0322 1.9856,-0.13543 1.9862,-0.2294 0.001,-0.21247 2.85195,0.66345 4.42813,1.36067 0.68895,0.30475 1.65323,0.49752 2.33937,0.46766 0.99164,-0.0432 1.29955,0.0774 2.04617,0.80103 0.86043,0.83396 1.45939,1.13861 1.10215,0.56059 -0.32109,-0.51953 0.84039,0.22855 2.50266,1.61191 3.06787,2.5531 5.1985,5.97359 5.28094,8.47797 l 0.048,1.45655 -0.53974,-1.08713 c -0.45556,-0.91759 -0.64163,-1.06766 -1.19312,-0.96223 -0.35936,0.0687 -0.65339,0.28002 -0.65339,0.46961 0,0.62664 0.31615,1.18251 0.67256,1.18251 0.19308,0 0.40827,0.20855 0.4782,0.46345 0.20673,0.75359 0.43373,2.61114 0.27508,2.25104 -0.29925,-0.67927 -0.60655,-0.30213 -0.32368,0.39724 0.16201,0.40055 0.33252,1.25424 0.37891,1.89709 0.0464,0.64285 0.21174,1.24755 0.36744,1.34378 0.19675,0.1216 0.16528,0.61321 -0.10321,1.61188 -0.21247,0.7903 -0.39414,1.32475 -0.40373,1.18767 -0.039,-0.55763 -0.79569,0.83075 -0.80349,1.47422 -0.005,0.38243 -0.28682,1.33581 -0.62709,2.11862 -0.34027,0.78282 -0.7042,1.65831 -0.80874,1.94554 -0.15369,0.42231 -0.23425,0.45072 -0.42102,0.14851 -0.17455,-0.28243 -0.34897,-0.12349 -0.71403,0.65065 -0.26569,0.5634 -1.06031,1.56912 -1.76583,2.23493 -2.99404,2.82553 -5.95144,4.03338 -9.84,4.0188 -3.37769,-0.0127 -4.77099,-0.46721 -6.96518,-2.27229 -3.49774,-2.87748 -4.79556,-5.28632 -4.81102,-8.92955 -0.008,-1.7673 0.11015,-2.29451 0.88643,-3.97242 1.16967,-2.52819 3.15128,-4.71841 4.98456,-5.50926 2.63028,-1.13467 6.49736,-0.57466 8.14536,1.17956 l 0.57089,0.60768 -1.29638,-0.64157 c -3.35216,-1.65897 -8.28672,-0.2182 -10.3213,3.01355 -1.14945,1.82582 -1.94092,4.82452 -1.44116,5.46028 0.13444,0.17103 0.32531,0.83995 0.42414,1.48649 0.71996,4.70982 6.25622,8.83667 10.68435,7.96434 1.90015,-0.37433 2.9709,-0.73046 3.74008,-1.24395 0.38268,-0.25546 0.8255,-0.43755 0.98405,-0.40462 0.15854,0.0329 1.10744,-0.62813 2.10865,-1.46902 1.38017,-1.15916 1.86508,-1.74738 2.00517,-2.43235 0.10163,-0.49689 0.42307,-1.0908 0.71433,-1.31979 0.29125,-0.22899 0.70282,-0.95262 0.9146,-1.60807 0.52561,-1.62676 0.41161,-7.75156 -0.18439,-9.90663 -1.34524,-4.86418 -5.6407,-9.64138 -9.79943,-10.89845 -2.02502,-0.61211 -5.03572,-0.87143 -7.72207,-0.66513 -1.96715,0.15106 -2.70169,0.33869 -4.02778,1.02885 -0.89203,0.46425 -1.81827,0.8441 -2.0583,0.8441 -0.27913,0 -0.38148,0.14317 -0.28399,0.39724 0.11663,0.30392 -0.054,0.39724 -0.72641,0.39724 -1.110363,0 -3.355189,1.51503 -2.782349,1.8778 0.290314,0.18385 0.267401,0.23356 -0.109127,0.23677 -1.25314,0.0107 -4.130661,2.21781 -6.317849,4.84598 -0.7229,0.86865 -1.252194,1.74138 -1.176209,1.93939 0.07598,0.19801 -0.328508,1.34522 -0.898872,2.54936 -0.9884,2.08668 -1.052238,2.38249 -1.361477,6.30872 -0.291479,3.70073 -0.279266,4.25753 0.120169,5.47873 0.244541,0.74764 0.444621,1.77682 0.444621,2.28706 0,0.51025 0.113968,0.99815 0.253262,1.08424 0.139294,0.0861 0.190563,0.31992 0.113933,0.51961 -0.221319,0.57675 0.899257,2.53306 1.450937,2.53306 0.560952,0 1.117283,0.57422 1.73191,1.78759 0.441751,0.87209 0.275346,1.13456 -0.335803,0.52966 -0.472166,-0.46734 0.07714,0.95944 0.727014,1.88838 0.266915,0.38153 0.431439,0.84666 0.36561,1.03363 -0.06583,0.18696 0.03532,0.52671 0.224773,0.75499 0.189456,0.22828 0.367629,0.57288 0.395942,0.76579 0.06022,0.4103 1.518232,2.57565 2.182617,3.24149 0.251991,0.25255 0.789295,0.97531 1.194009,1.60614 0.473297,0.73773 0.870985,1.0951 1.114609,1.00162 -2.023516,0.36322 -11.105538,-14.28182 -12.829693,-22.80512 z m 26.258103,10.60983 c -1.70221,-0.41246 -4.82411,-1.92086 -5.01724,-2.42415 -0.0781,-0.20362 -0.22871,-0.31667 -0.33461,-0.25122 -0.1059,0.0654 -0.77865,-0.5009 -1.49501,-1.25855 -1.11506,-1.17933 -1.14052,-1.22705 -0.17695,-0.3316 0.61904,0.57527 1.12552,0.94803 1.12552,0.82836 0,-0.11968 0.41715,0.10058 0.927,0.48946 0.50985,0.38888 1.31427,0.88473 1.78759,1.10188 0.47332,0.21714 1.26451,0.64882 1.75818,0.95927 0.65197,0.40999 1.46585,0.59735 2.9741,0.68466 1.14208,0.0661 2.01223,0.22421 1.93368,0.35131 -0.19821,0.32072 -1.83125,0.25064 -3.48226,-0.14942 z m -5.36863,-2.91419 c 0,-0.0642 -0.13759,-0.20182 -0.30575,-0.30575 -0.18943,-0.11707 -0.23386,-0.0727 -0.11678,0.11678 0.18867,0.30528 0.42253,0.40987 0.42253,0.18897 z m -3.53742,-2.03967 c -0.4162,-0.57907 -0.69294,-1.11664 -0.61498,-1.1946 0.078,-0.078 0.45688,0.35746 0.84205,0.9676 0.90604,1.43526 0.75202,1.58923 -0.22707,0.227 z m 10.15811,-2.61045 c -0.28867,-0.18656 -0.0715,-0.25672 0.79449,-0.25672 0.86602,0 1.08316,0.0702 0.79448,0.25672 -0.21848,0.14119 -0.576,0.25672 -0.79448,0.25672 -0.21849,0 -0.576,-0.11553 -0.79449,-0.25672 z m 4.89932,-2.11862 c 0.09,-0.14566 0.22326,-0.26483 0.29609,-0.26483 0.0728,0 0.0588,0.11917 -0.0313,0.26483 -0.09,0.14565 -0.22326,0.26482 -0.29609,0.26482 -0.0728,0 -0.0588,-0.11917 0.0313,-0.26482 z m 1.57471,-4.78998 c -0.0979,-0.15835 -0.0453,-0.42053 0.11678,-0.58262 0.21641,-0.21641 0.29472,-0.13991 0.29472,0.2879 0,0.63943 -0.13757,0.73796 -0.4115,0.29472 z m -34.524874,-6.22245 c 0.01271,-0.30851 0.07546,-0.37126 0.16,-0.16 0.0765,0.19117 0.06709,0.41959 -0.02091,0.50759 -0.088,0.088 -0.150592,-0.0684 -0.139093,-0.34759 z m 1.472291,-4.74483 c 0.08384,-0.21849 0.255118,-0.39724 0.380619,-0.39724 0.125501,0 0.159587,0.17875 0.07575,0.39724 -0.08384,0.21848 -0.255118,0.39724 -0.380619,0.39724 -0.125501,0 -0.159587,-0.17876 -0.07575,-0.39724 z m 15.808893,-5.07587 c 0.0971,-0.0971 0.256,-0.0971 0.3531,0 0.0971,0.0971 0.0177,0.17655 -0.17655,0.17655 -0.19421,0 -0.27366,-0.0795 -0.17655,-0.17655 z"
                 id="path1505"
                 inkscape:connector-curvature="0"
                 sodipodi:nodetypes="ccscccscccsccccccccccssscccccsccccccccccccccccccccccccccsccscsccsccsssccscccccccscccccscsscccccsccscscccscsccscscccscccscccscsccssc" />
              <path
                 style="fill:#000000;fill-opacity:1;stroke-width:0.264828"
                 d="m 100.47937,157.35327 c -5.590492,-3.86775 -11.703167,-9.01562 -14.403669,-19.43775 -0.80116,-3.09194 -1.039332,-13.68963 -0.355003,-15.79621 1.041889,-3.20727 2.051227,-5.53998 2.501307,-5.78086 0.263035,-0.14077 0.987078,-1.28311 1.608984,-2.53853 0.917709,-1.85255 1.550303,-2.6897 3.357753,-4.44351 1.224858,-1.18851 2.355434,-2.12569 2.512391,-2.08262 0.156956,0.0431 0.537192,-0.15203 0.844969,-0.43354 1.164686,-1.06529 7.622808,-4.18137 8.080148,-3.89872 0.10378,0.0641 0.63415,0.0161 1.17859,-0.10664 0.77108,-0.1739 0.93022,-0.15134 0.71991,0.10207 -0.30963,0.37308 -0.0683,0.40248 4.21958,0.51407 2.98038,0.0776 4.4434,0.39189 6.37136,1.36886 0.91665,0.4645 1.48266,0.58048 2.29872,0.47102 0.98393,-0.13197 1.17238,-0.0555 2.06712,0.83928 0.6496,0.6496 1.04858,0.88079 1.1729,0.67963 0.23368,-0.37809 2.23124,1.16895 4.12374,3.19368 2.06925,2.21384 3.35755,4.52162 3.39765,6.08632 0.0184,0.71595 0.007,1.30168 -0.0261,1.30163 -0.0327,-5e-5 -0.2437,-0.35648 -0.46895,-0.79207 -0.29796,-0.57618 -0.5666,-0.76801 -0.98592,-0.70402 -0.31701,0.0484 -0.6241,0.23113 -0.68242,0.40611 -0.17915,0.53745 0.20047,1.61955 0.56817,1.61955 0.1951,0 0.46745,0.52386 0.62083,1.19411 0.22866,0.99922 0.21433,1.14521 -0.0878,0.89448 -0.4508,-0.37414 -0.47275,-0.0181 -0.062,1.0059 0.16447,0.41003 0.27933,1.18368 0.25524,1.71922 -0.0245,0.54458 0.11922,1.12599 0.32608,1.31922 0.31649,0.29565 0.31427,0.5087 -0.0154,1.47615 -0.21189,0.62185 -0.48554,1.06866 -0.60812,0.9929 -0.12258,-0.0758 -0.30187,0.43064 -0.39843,1.12532 -0.23025,1.65645 -1.6647,4.83985 -2.10477,4.67098 -0.19875,-0.0763 -0.49951,0.29 -0.74792,0.91084 -0.87553,2.18816 -5.26773,5.20048 -8.58863,5.89039 -1.87847,0.39024 -5.58575,0.18852 -7.2288,-0.39333 -1.55683,-0.55131 -5.19327,-3.87917 -6.13022,-5.61 -0.86616,-1.60006 -1.39786,-4.2124 -1.19449,-5.86872 0.18692,-1.52236 1.1455,-3.92245 2.039,-5.10525 1.52131,-2.01387 2.04012,-2.47995 3.56185,-3.19986 2.2374,-1.05848 4.41355,-1.05494 6.66639,0.0108 0.8928,0.42236 1.69403,0.88244 1.78052,1.02238 0.0865,0.13994 -0.3453,0.006 -0.95953,-0.2981 -1.73894,-0.86036 -4.6154,-0.78048 -6.71491,0.18649 -3.8498,1.77308 -5.73748,5.61164 -4.73174,9.6219 0.91166,3.63515 2.86486,6.15566 5.85418,7.55454 2.92074,1.36677 5.34414,1.25985 8.84201,-0.39014 2.88795,-1.36228 5.29655,-3.49556 5.29655,-4.69112 0,-0.50192 0.16312,-0.81382 0.47785,-0.91372 0.26692,-0.0847 0.67851,-0.70969 0.93246,-1.41591 0.67659,-1.88152 0.4946,-8.50015 -0.30012,-10.91503 -0.79502,-2.41577 -2.29295,-4.82153 -4.18366,-6.7192 -3.30305,-3.31519 -5.90082,-4.27577 -11.50462,-4.25407 l -3.58774,0.0139 -2.23847,1.03846 c -1.23116,0.57115 -2.29806,1.11698 -2.37088,1.21296 -0.0728,0.096 -0.58387,0.2986 -1.13564,0.45026 -1.143915,0.31443 -2.992234,1.7929 -2.494209,1.99512 0.175723,0.0713 0.07179,0.13914 -0.230964,0.15064 -0.896685,0.034 -2.828758,1.47832 -4.955447,3.7043 -2.057585,2.15365 -2.814771,3.20213 -2.312504,3.20213 0.152611,0 -0.158771,0.864 -0.69196,1.92 -0.759452,1.50412 -1.045743,2.49363 -1.321729,4.56828 -0.433654,3.25988 -0.464195,6.99744 -0.06532,7.9938 0.164149,0.41004 0.333459,1.16262 0.376244,1.67242 0.233143,2.77797 0.827479,4.11643 2.057378,4.63326 0.463706,0.19487 1.051654,0.71035 1.30655,1.14552 0.568385,0.97037 0.59264,1.27881 0.06621,0.84191 -0.623132,-0.51715 -0.502375,0.2022 0.256867,1.53016 0.356251,0.62311 0.587737,1.28926 0.514414,1.48034 -0.07332,0.19107 0.05087,0.50027 0.275979,0.68709 0.225111,0.18683 0.409811,0.53365 0.410443,0.77071 0.0014,0.53741 4.14631,6.12482 4.543541,6.12482 0.418332,0 2.565937,1.70043 2.495537,2.02387 -0.074,0.33989 1.30292,0.98013 1.97606,1.3639 0.48251,0.27509 1.57893,0.7378 1.65075,0.92498 6.28872,4.09787 1.45165,1.75415 -3.71814,0.16225 z m 11.66035,-16.84058 c 0.25767,-0.0671 0.61518,-0.0627 0.79448,0.01 0.1793,0.0725 -0.0315,0.12748 -0.46849,0.12208 -0.43696,-0.005 -0.58366,-0.0648 -0.32599,-0.13189 z m -1.18022,-0.26221 c 0.19117,-0.0765 0.41959,-0.0671 0.50759,0.0209 0.088,0.088 -0.0684,0.15059 -0.34759,0.13909 -0.30851,-0.0127 -0.37126,-0.0755 -0.16,-0.16 z m -2.38108,-0.88582 c -1.26679,-0.65404 -2.13705,-1.31672 -1.72917,-1.31672 0.17382,0 2.60819,1.3202 3.20436,1.73777 0.89388,0.6261 0.13159,0.40852 -1.47519,-0.42105 z m -4.08271,-2.9719 -0.50449,-0.59586 0.59586,0.5045 c 0.55997,0.4741 0.71643,0.68723 0.5045,0.68723 -0.0503,0 -0.31839,-0.26814 -0.59587,-0.59587 z m -1.58909,-0.50436 c -0.11708,-0.18943 -0.0727,-0.23386 0.11678,-0.11679 0.30529,0.18868 0.40987,0.42253 0.18897,0.42253 -0.0642,0 -0.20182,-0.13758 -0.30575,-0.30574 z m -0.63678,-1.0184 c -0.15591,-0.29131 -0.22388,-0.52965 -0.15105,-0.52965 0.0728,0 0.25997,0.23834 0.41588,0.52965 0.1559,0.29131 0.22387,0.52966 0.15105,0.52966 -0.0728,0 -0.25998,-0.23835 -0.41588,-0.52966 z m 10.85794,-1.85379 c -0.58715,-0.18804 -0.54793,-0.21502 0.34667,-0.23843 0.61077,-0.016 0.94416,0.0781 0.84506,0.23843 -0.18403,0.29776 -0.26197,0.29776 -1.19173,0 z m 6.37678,-7.04001 c 0.0127,-0.30851 0.0755,-0.37126 0.16,-0.16 0.0765,0.19117 0.0671,0.41959 -0.0209,0.50759 -0.088,0.088 -0.15059,-0.0684 -0.13909,-0.34759 z m -34.713361,-6.20138 c 0,-0.19421 0.07945,-0.27366 0.176552,-0.17656 0.0971,0.0971 0.0971,0.256 0,0.35311 -0.0971,0.0971 -0.176552,0.0177 -0.176552,-0.17655 z m 1.588967,-4.76691 c 0,-0.1942 0.07945,-0.27365 0.176552,-0.17655 0.0971,0.0971 0.0971,0.256 0,0.35311 -0.0971,0.0971 -0.176552,0.0176 -0.176552,-0.17656 z"
                 id="path1507"
                 inkscape:connector-curvature="0"
                 sodipodi:nodetypes="csscssccccccscccccccccsccccccccccccscccccccccsscccccccccccsssscscccccccscsccccccccsccccscccccscccsccscscccccccsccsccssccs" />
            </g>
          </g>
        </g>
      </g>
    </g>
  </g>
</svg>
